<mxfile host="app.diagrams.net" modified="2023-12-09T18:31:01.539Z" agent="Mozilla/5.0 (X11; Linux x86_64; rv:109.0) Gecko/20100101 Firefox/115.0" etag="PH2u9Jnz9fJNX_2GAobv" version="22.1.7" type="github" pages="19">
  <diagram id="IU4QbEFLuFTPxfrVKN8U" name="مشاهده‌ پادکست‌ها">
    <mxGraphModel dx="1434" dy="907" grid="0" gridSize="10" guides="1" tooltips="1" connect="1" arrows="1" fold="1" page="1" pageScale="1" pageWidth="850" pageHeight="1100" background="#ffffff" math="0" shadow="1">
      <root>
        <mxCell id="0" />
        <mxCell id="1" parent="0" />
        <mxCell id="k6ZLXF4ZezJg3OD_7ee3-1" value="" style="ellipse;html=1;shape=startState;fillColor=#000000;strokeColor=#ff0000;" parent="1" vertex="1">
          <mxGeometry x="398.12" y="20" width="30" height="30" as="geometry" />
        </mxCell>
        <mxCell id="M1vJ0tfAqrNWMRTYEBSF-1" style="edgeStyle=orthogonalEdgeStyle;rounded=0;orthogonalLoop=1;jettySize=auto;html=1;entryX=0.5;entryY=0;entryDx=0;entryDy=0;" parent="1" source="M1vJ0tfAqrNWMRTYEBSF-2" target="M1vJ0tfAqrNWMRTYEBSF-3" edge="1">
          <mxGeometry relative="1" as="geometry" />
        </mxCell>
        <mxCell id="M1vJ0tfAqrNWMRTYEBSF-2" value="" style="ellipse;html=1;shape=startState;fillColor=#000000;strokeColor=#ff0000;" parent="1" vertex="1">
          <mxGeometry x="398.12" y="20" width="30" height="30" as="geometry" />
        </mxCell>
        <mxCell id="1zLVHw3vAIFC-AfPiMri-1" style="edgeStyle=orthogonalEdgeStyle;rounded=0;orthogonalLoop=1;jettySize=auto;html=1;entryX=0.5;entryY=0;entryDx=0;entryDy=0;" parent="1" source="M1vJ0tfAqrNWMRTYEBSF-3" target="spIV2WK_pKVCceX08R4--1" edge="1">
          <mxGeometry relative="1" as="geometry" />
        </mxCell>
        <mxCell id="M1vJ0tfAqrNWMRTYEBSF-3" value="انتخاب پادکست‌ها" style="rounded=1;whiteSpace=wrap;html=1;fillColor=#fff2cc;strokeColor=#d6b656;" parent="1" vertex="1">
          <mxGeometry x="353.12" y="105" width="120" height="60" as="geometry" />
        </mxCell>
        <mxCell id="spIV2WK_pKVCceX08R4--1" value="مشاهده پادکست‌ها" style="rounded=1;whiteSpace=wrap;html=1;fillColor=#fff2cc;strokeColor=#d6b656;" parent="1" vertex="1">
          <mxGeometry x="353.12" y="214" width="120" height="60" as="geometry" />
        </mxCell>
      </root>
    </mxGraphModel>
  </diagram>
  <diagram id="ZDBqAYVeI_48zrZOUiyA" name="پیشنهاد برای پادکست">
    <mxGraphModel dx="1434" dy="907" grid="0" gridSize="10" guides="1" tooltips="1" connect="1" arrows="1" fold="1" page="1" pageScale="1" pageWidth="850" pageHeight="1100" math="0" shadow="1">
      <root>
        <mxCell id="0" />
        <mxCell id="1" parent="0" />
        <mxCell id="-PPTS48ZXH5jQsiLlJTE-1" style="edgeStyle=orthogonalEdgeStyle;rounded=0;orthogonalLoop=1;jettySize=auto;html=1;entryX=0.5;entryY=0;entryDx=0;entryDy=0;" parent="1" source="-PPTS48ZXH5jQsiLlJTE-2" target="-PPTS48ZXH5jQsiLlJTE-3" edge="1">
          <mxGeometry relative="1" as="geometry" />
        </mxCell>
        <mxCell id="-PPTS48ZXH5jQsiLlJTE-2" value="" style="ellipse;html=1;shape=startState;fillColor=#000000;strokeColor=#ff0000;" parent="1" vertex="1">
          <mxGeometry x="408.12" y="18" width="30" height="30" as="geometry" />
        </mxCell>
        <mxCell id="-PPTS48ZXH5jQsiLlJTE-3" value="" style="rounded=1;whiteSpace=wrap;html=1;fillColor=#fff2cc;strokeColor=#d6b656;" parent="1" vertex="1">
          <mxGeometry x="363.12" y="102" width="120" height="60" as="geometry" />
        </mxCell>
        <mxCell id="-PPTS48ZXH5jQsiLlJTE-4" value="" style="rhombus;whiteSpace=wrap;html=1;fillColor=#dae8fc;strokeColor=#6c8ebf;" parent="1" vertex="1">
          <mxGeometry x="48" y="346" width="169" height="80" as="geometry" />
        </mxCell>
      </root>
    </mxGraphModel>
  </diagram>
  <diagram id="vHkUNZTKIWTCjWEhAPmg" name="مشاهده مجله">
    <mxGraphModel dx="1434" dy="907" grid="0" gridSize="10" guides="1" tooltips="1" connect="1" arrows="1" fold="1" page="1" pageScale="1" pageWidth="850" pageHeight="1100" math="0" shadow="1">
      <root>
        <mxCell id="0" />
        <mxCell id="1" parent="0" />
        <mxCell id="DtHBlu9vY6bwpos8TZfw-3" style="edgeStyle=orthogonalEdgeStyle;rounded=0;orthogonalLoop=1;jettySize=auto;html=1;entryX=0.5;entryY=0;entryDx=0;entryDy=0;" parent="1" source="DtHBlu9vY6bwpos8TZfw-4" target="DtHBlu9vY6bwpos8TZfw-5" edge="1">
          <mxGeometry relative="1" as="geometry" />
        </mxCell>
        <mxCell id="DtHBlu9vY6bwpos8TZfw-4" value="" style="ellipse;html=1;shape=startState;fillColor=#000000;strokeColor=#ff0000;" parent="1" vertex="1">
          <mxGeometry x="408.12" y="18" width="30" height="30" as="geometry" />
        </mxCell>
        <mxCell id="DtHBlu9vY6bwpos8TZfw-5" value="" style="rounded=1;whiteSpace=wrap;html=1;fillColor=#fff2cc;strokeColor=#d6b656;" parent="1" vertex="1">
          <mxGeometry x="363.12" y="102" width="120" height="60" as="geometry" />
        </mxCell>
        <mxCell id="DtHBlu9vY6bwpos8TZfw-6" value="" style="rhombus;whiteSpace=wrap;html=1;fillColor=#dae8fc;strokeColor=#6c8ebf;" parent="1" vertex="1">
          <mxGeometry x="341" y="244" width="169" height="80" as="geometry" />
        </mxCell>
      </root>
    </mxGraphModel>
  </diagram>
  <diagram id="z7CmttYCGPX6qLOfJtiS" name="پیشنهاد برای مجله">
    <mxGraphModel dx="1434" dy="907" grid="0" gridSize="10" guides="1" tooltips="1" connect="1" arrows="1" fold="1" page="1" pageScale="1" pageWidth="850" pageHeight="1100" math="0" shadow="1">
      <root>
        <mxCell id="0" />
        <mxCell id="1" parent="0" />
        <mxCell id="wVcuXGwWFRisFdM-Ow2x-1" style="edgeStyle=orthogonalEdgeStyle;rounded=0;orthogonalLoop=1;jettySize=auto;html=1;entryX=0.5;entryY=0;entryDx=0;entryDy=0;" parent="1" source="wVcuXGwWFRisFdM-Ow2x-2" target="wVcuXGwWFRisFdM-Ow2x-3" edge="1">
          <mxGeometry relative="1" as="geometry" />
        </mxCell>
        <mxCell id="wVcuXGwWFRisFdM-Ow2x-2" value="" style="ellipse;html=1;shape=startState;fillColor=#000000;strokeColor=#ff0000;" parent="1" vertex="1">
          <mxGeometry x="408.12" y="18" width="30" height="30" as="geometry" />
        </mxCell>
        <mxCell id="wVcuXGwWFRisFdM-Ow2x-3" value="" style="rounded=1;whiteSpace=wrap;html=1;fillColor=#fff2cc;strokeColor=#d6b656;" parent="1" vertex="1">
          <mxGeometry x="363.12" y="102" width="120" height="60" as="geometry" />
        </mxCell>
        <mxCell id="wVcuXGwWFRisFdM-Ow2x-4" value="" style="rhombus;whiteSpace=wrap;html=1;fillColor=#dae8fc;strokeColor=#6c8ebf;" parent="1" vertex="1">
          <mxGeometry x="92" y="450" width="169" height="80" as="geometry" />
        </mxCell>
      </root>
    </mxGraphModel>
  </diagram>
  <diagram id="g3hmmyfDTkk_riZOD2IL" name="تست روانشناسی">
    <mxGraphModel dx="1434" dy="907" grid="0" gridSize="10" guides="1" tooltips="1" connect="1" arrows="1" fold="1" page="1" pageScale="1" pageWidth="850" pageHeight="1100" math="0" shadow="1">
      <root>
        <mxCell id="0" />
        <mxCell id="1" parent="0" />
        <mxCell id="pLKDDSKlxrVRtJhLnME_-1" style="edgeStyle=orthogonalEdgeStyle;rounded=0;orthogonalLoop=1;jettySize=auto;html=1;entryX=0.5;entryY=0;entryDx=0;entryDy=0;" parent="1" source="pLKDDSKlxrVRtJhLnME_-2" target="pLKDDSKlxrVRtJhLnME_-3" edge="1">
          <mxGeometry relative="1" as="geometry" />
        </mxCell>
        <mxCell id="pLKDDSKlxrVRtJhLnME_-2" value="" style="ellipse;html=1;shape=startState;fillColor=#000000;strokeColor=#ff0000;" parent="1" vertex="1">
          <mxGeometry x="408.12" y="18" width="30" height="30" as="geometry" />
        </mxCell>
        <mxCell id="bqUCP1LabAtK5J1-2fTZ-4" style="edgeStyle=orthogonalEdgeStyle;rounded=0;orthogonalLoop=1;jettySize=auto;html=1;entryX=0.5;entryY=0;entryDx=0;entryDy=0;" parent="1" source="pLKDDSKlxrVRtJhLnME_-3" target="bqUCP1LabAtK5J1-2fTZ-1" edge="1">
          <mxGeometry relative="1" as="geometry" />
        </mxCell>
        <mxCell id="pLKDDSKlxrVRtJhLnME_-3" value="انتخاب دکمه تست‌های روان‌شناسی" style="rounded=1;whiteSpace=wrap;html=1;fillColor=#fff2cc;strokeColor=#d6b656;" parent="1" vertex="1">
          <mxGeometry x="363.12" y="102" width="120" height="60" as="geometry" />
        </mxCell>
        <mxCell id="bqUCP1LabAtK5J1-2fTZ-5" style="edgeStyle=orthogonalEdgeStyle;rounded=0;orthogonalLoop=1;jettySize=auto;html=1;entryX=0.5;entryY=0;entryDx=0;entryDy=0;" parent="1" source="bqUCP1LabAtK5J1-2fTZ-1" target="bqUCP1LabAtK5J1-2fTZ-2" edge="1">
          <mxGeometry relative="1" as="geometry" />
        </mxCell>
        <mxCell id="bqUCP1LabAtK5J1-2fTZ-1" value="انتخاب موضوع تست از بین گزینه‌های موجود" style="rounded=1;whiteSpace=wrap;html=1;fillColor=#fff2cc;strokeColor=#d6b656;" parent="1" vertex="1">
          <mxGeometry x="363.12" y="219" width="120" height="60" as="geometry" />
        </mxCell>
        <mxCell id="bqUCP1LabAtK5J1-2fTZ-6" style="edgeStyle=orthogonalEdgeStyle;rounded=0;orthogonalLoop=1;jettySize=auto;html=1;" parent="1" source="bqUCP1LabAtK5J1-2fTZ-2" target="bqUCP1LabAtK5J1-2fTZ-3" edge="1">
          <mxGeometry relative="1" as="geometry" />
        </mxCell>
        <mxCell id="bqUCP1LabAtK5J1-2fTZ-2" value="پاسخ دادن به هر سوال از تست" style="rounded=1;whiteSpace=wrap;html=1;fillColor=#fff2cc;strokeColor=#d6b656;" parent="1" vertex="1">
          <mxGeometry x="363.12" y="336" width="120" height="60" as="geometry" />
        </mxCell>
        <mxCell id="bqUCP1LabAtK5J1-2fTZ-3" value="اتمام تست" style="rounded=1;whiteSpace=wrap;html=1;fillColor=#fff2cc;strokeColor=#d6b656;" parent="1" vertex="1">
          <mxGeometry x="363.12" y="453" width="120" height="60" as="geometry" />
        </mxCell>
      </root>
    </mxGraphModel>
  </diagram>
  <diagram name="ثبت‌نام" id="GEQRo5h9ixli0StdwVT6">
    <mxGraphModel dx="1434" dy="907" grid="0" gridSize="10" guides="1" tooltips="1" connect="1" arrows="1" fold="1" page="1" pageScale="1" pageWidth="850" pageHeight="1100" math="0" shadow="0">
      <root>
        <mxCell id="0" />
        <mxCell id="1" parent="0" />
        <mxCell id="FU2mFHKaWdH8SwG0TTAj-3" style="edgeStyle=orthogonalEdgeStyle;rounded=0;orthogonalLoop=1;jettySize=auto;html=1;entryX=0.5;entryY=0;entryDx=0;entryDy=0;" parent="1" source="AQqeIJzm-4LwvkK71rF2-14" target="FU2mFHKaWdH8SwG0TTAj-1" edge="1">
          <mxGeometry relative="1" as="geometry" />
        </mxCell>
        <mxCell id="AQqeIJzm-4LwvkK71rF2-14" value="" style="ellipse;html=1;shape=startState;fillColor=#000000;strokeColor=#ff0000;" parent="1" vertex="1">
          <mxGeometry x="398.12" y="20" width="30" height="30" as="geometry" />
        </mxCell>
        <mxCell id="AQqeIJzm-4LwvkK71rF2-34" style="edgeStyle=orthogonalEdgeStyle;rounded=0;orthogonalLoop=1;jettySize=auto;html=1;exitX=0.5;exitY=1;exitDx=0;exitDy=0;" parent="1" source="FU2mFHKaWdH8SwG0TTAj-9" edge="1">
          <mxGeometry relative="1" as="geometry">
            <mxPoint x="242.1199999999999" y="435" as="sourcePoint" />
            <mxPoint x="243" y="480" as="targetPoint" />
          </mxGeometry>
        </mxCell>
        <mxCell id="AQqeIJzm-4LwvkK71rF2-52" style="edgeStyle=orthogonalEdgeStyle;rounded=0;orthogonalLoop=1;jettySize=auto;html=1;entryX=1;entryY=0.467;entryDx=0;entryDy=0;entryPerimeter=0;exitX=1;exitY=0.5;exitDx=0;exitDy=0;" parent="1" source="AQqeIJzm-4LwvkK71rF2-51" edge="1">
          <mxGeometry relative="1" as="geometry">
            <mxPoint x="303.12" y="407.0200000000002" as="targetPoint" />
            <Array as="points">
              <mxPoint x="323" y="610" />
              <mxPoint x="323" y="407" />
            </Array>
            <mxPoint x="301.25" y="504" as="sourcePoint" />
          </mxGeometry>
        </mxCell>
        <mxCell id="AQqeIJzm-4LwvkK71rF2-61" value="no" style="edgeLabel;html=1;align=center;verticalAlign=middle;resizable=0;points=[];" parent="AQqeIJzm-4LwvkK71rF2-52" vertex="1" connectable="0">
          <mxGeometry x="0.1098" y="-1" relative="1" as="geometry">
            <mxPoint as="offset" />
          </mxGeometry>
        </mxCell>
        <mxCell id="AQqeIJzm-4LwvkK71rF2-55" style="edgeStyle=orthogonalEdgeStyle;rounded=0;orthogonalLoop=1;jettySize=auto;html=1;entryX=0.5;entryY=0.003;entryDx=0;entryDy=0;entryPerimeter=0;" parent="1" source="AQqeIJzm-4LwvkK71rF2-51" target="FU2mFHKaWdH8SwG0TTAj-25" edge="1">
          <mxGeometry relative="1" as="geometry">
            <mxPoint x="243" y="683" as="targetPoint" />
          </mxGeometry>
        </mxCell>
        <mxCell id="AQqeIJzm-4LwvkK71rF2-62" value="yes" style="edgeLabel;html=1;align=center;verticalAlign=middle;resizable=0;points=[];" parent="AQqeIJzm-4LwvkK71rF2-55" vertex="1" connectable="0">
          <mxGeometry x="0.1186" y="2" relative="1" as="geometry">
            <mxPoint y="-2" as="offset" />
          </mxGeometry>
        </mxCell>
        <mxCell id="AQqeIJzm-4LwvkK71rF2-51" value="اعتبارسنجی اطلاعات" style="rhombus;whiteSpace=wrap;html=1;fillColor=#dae8fc;strokeColor=#6c8ebf;" parent="1" vertex="1">
          <mxGeometry x="195" y="585" width="96.25" height="50" as="geometry" />
        </mxCell>
        <mxCell id="AQqeIJzm-4LwvkK71rF2-56" style="edgeStyle=orthogonalEdgeStyle;rounded=0;orthogonalLoop=1;jettySize=auto;html=1;exitX=0.5;exitY=1;exitDx=0;exitDy=0;entryX=0.5;entryY=0.004;entryDx=0;entryDy=0;entryPerimeter=0;" parent="1" source="FU2mFHKaWdH8SwG0TTAj-10" target="FU2mFHKaWdH8SwG0TTAj-19" edge="1">
          <mxGeometry relative="1" as="geometry">
            <mxPoint x="411.1199999999999" y="434" as="sourcePoint" />
            <mxPoint x="413" y="490" as="targetPoint" />
            <Array as="points">
              <mxPoint x="413" y="479" />
              <mxPoint x="413" y="479" />
            </Array>
          </mxGeometry>
        </mxCell>
        <mxCell id="AQqeIJzm-4LwvkK71rF2-57" style="edgeStyle=orthogonalEdgeStyle;rounded=0;orthogonalLoop=1;jettySize=auto;html=1;entryX=1;entryY=0.467;entryDx=0;entryDy=0;entryPerimeter=0;exitX=1;exitY=0.5;exitDx=0;exitDy=0;" parent="1" source="AQqeIJzm-4LwvkK71rF2-59" edge="1">
          <mxGeometry relative="1" as="geometry">
            <mxPoint x="474.24" y="407" as="targetPoint" />
            <Array as="points">
              <mxPoint x="494" y="610" />
              <mxPoint x="494" y="407" />
            </Array>
            <mxPoint x="472.3699999999999" y="504" as="sourcePoint" />
          </mxGeometry>
        </mxCell>
        <mxCell id="AQqeIJzm-4LwvkK71rF2-65" value="no" style="edgeLabel;html=1;align=center;verticalAlign=middle;resizable=0;points=[];" parent="AQqeIJzm-4LwvkK71rF2-57" vertex="1" connectable="0">
          <mxGeometry x="0.1118" y="-2" relative="1" as="geometry">
            <mxPoint as="offset" />
          </mxGeometry>
        </mxCell>
        <mxCell id="AQqeIJzm-4LwvkK71rF2-58" style="edgeStyle=orthogonalEdgeStyle;rounded=0;orthogonalLoop=1;jettySize=auto;html=1;entryX=0.507;entryY=-0.003;entryDx=0;entryDy=0;entryPerimeter=0;" parent="1" source="AQqeIJzm-4LwvkK71rF2-59" target="FU2mFHKaWdH8SwG0TTAj-26" edge="1">
          <mxGeometry relative="1" as="geometry">
            <mxPoint x="413.1200000000001" y="683" as="targetPoint" />
          </mxGeometry>
        </mxCell>
        <mxCell id="AQqeIJzm-4LwvkK71rF2-66" value="yes" style="edgeLabel;html=1;align=center;verticalAlign=middle;resizable=0;points=[];" parent="AQqeIJzm-4LwvkK71rF2-58" vertex="1" connectable="0">
          <mxGeometry x="-0.0672" relative="1" as="geometry">
            <mxPoint as="offset" />
          </mxGeometry>
        </mxCell>
        <mxCell id="AQqeIJzm-4LwvkK71rF2-59" value="اعتبارسنجی اطلاعات" style="rhombus;whiteSpace=wrap;html=1;fillColor=#dae8fc;strokeColor=#6c8ebf;" parent="1" vertex="1">
          <mxGeometry x="365.12" y="585" width="96.25" height="50" as="geometry" />
        </mxCell>
        <mxCell id="AQqeIJzm-4LwvkK71rF2-68" style="edgeStyle=orthogonalEdgeStyle;rounded=0;orthogonalLoop=1;jettySize=auto;html=1;entryX=0.5;entryY=0;entryDx=0;entryDy=0;exitX=0.5;exitY=1;exitDx=0;exitDy=0;exitPerimeter=0;" parent="1" source="FU2mFHKaWdH8SwG0TTAj-11" edge="1">
          <mxGeometry relative="1" as="geometry">
            <mxPoint x="585.3699999999999" y="432" as="sourcePoint" />
            <mxPoint x="585.49" y="479" as="targetPoint" />
            <Array as="points" />
          </mxGeometry>
        </mxCell>
        <mxCell id="AQqeIJzm-4LwvkK71rF2-69" style="edgeStyle=orthogonalEdgeStyle;rounded=0;orthogonalLoop=1;jettySize=auto;html=1;entryX=1;entryY=0.467;entryDx=0;entryDy=0;entryPerimeter=0;exitX=1;exitY=0.5;exitDx=0;exitDy=0;" parent="1" source="AQqeIJzm-4LwvkK71rF2-73" edge="1">
          <mxGeometry relative="1" as="geometry">
            <mxPoint x="646.49" y="407" as="targetPoint" />
            <Array as="points">
              <mxPoint x="667" y="610" />
              <mxPoint x="667" y="407" />
            </Array>
            <mxPoint x="644.6199999999997" y="504" as="sourcePoint" />
          </mxGeometry>
        </mxCell>
        <mxCell id="AQqeIJzm-4LwvkK71rF2-70" value="no" style="edgeLabel;html=1;align=center;verticalAlign=middle;resizable=0;points=[];" parent="AQqeIJzm-4LwvkK71rF2-69" vertex="1" connectable="0">
          <mxGeometry x="0.1118" y="-2" relative="1" as="geometry">
            <mxPoint as="offset" />
          </mxGeometry>
        </mxCell>
        <mxCell id="AQqeIJzm-4LwvkK71rF2-71" style="edgeStyle=orthogonalEdgeStyle;rounded=0;orthogonalLoop=1;jettySize=auto;html=1;entryX=0.499;entryY=0.007;entryDx=0;entryDy=0;entryPerimeter=0;" parent="1" source="AQqeIJzm-4LwvkK71rF2-73" target="FU2mFHKaWdH8SwG0TTAj-27" edge="1">
          <mxGeometry relative="1" as="geometry">
            <mxPoint x="585.3700000000001" y="683" as="targetPoint" />
          </mxGeometry>
        </mxCell>
        <mxCell id="AQqeIJzm-4LwvkK71rF2-72" value="yes" style="edgeLabel;html=1;align=center;verticalAlign=middle;resizable=0;points=[];" parent="AQqeIJzm-4LwvkK71rF2-71" vertex="1" connectable="0">
          <mxGeometry x="-0.0672" relative="1" as="geometry">
            <mxPoint as="offset" />
          </mxGeometry>
        </mxCell>
        <mxCell id="AQqeIJzm-4LwvkK71rF2-73" value="اعتبارسنجی اطلاعات" style="rhombus;whiteSpace=wrap;html=1;fillColor=#dae8fc;strokeColor=#6c8ebf;" parent="1" vertex="1">
          <mxGeometry x="537.37" y="585" width="96.25" height="50" as="geometry" />
        </mxCell>
        <mxCell id="FU2mFHKaWdH8SwG0TTAj-8" style="edgeStyle=orthogonalEdgeStyle;rounded=0;orthogonalLoop=1;jettySize=auto;html=1;" parent="1" source="FU2mFHKaWdH8SwG0TTAj-1" target="FU2mFHKaWdH8SwG0TTAj-7" edge="1">
          <mxGeometry relative="1" as="geometry" />
        </mxCell>
        <mxCell id="FU2mFHKaWdH8SwG0TTAj-1" value="انتخاب گزینه ثبت‌نام" style="rounded=1;whiteSpace=wrap;html=1;fillColor=#fff2cc;strokeColor=#d6b656;" parent="1" vertex="1">
          <mxGeometry x="353.12" y="97" width="120" height="60" as="geometry" />
        </mxCell>
        <mxCell id="FU2mFHKaWdH8SwG0TTAj-12" style="edgeStyle=orthogonalEdgeStyle;rounded=0;orthogonalLoop=1;jettySize=auto;html=1;entryX=0.5;entryY=0;entryDx=0;entryDy=0;" parent="1" source="FU2mFHKaWdH8SwG0TTAj-7" target="FU2mFHKaWdH8SwG0TTAj-10" edge="1">
          <mxGeometry relative="1" as="geometry" />
        </mxCell>
        <mxCell id="FU2mFHKaWdH8SwG0TTAj-13" value="پزشک" style="edgeLabel;html=1;align=center;verticalAlign=middle;resizable=0;points=[];" parent="FU2mFHKaWdH8SwG0TTAj-12" vertex="1" connectable="0">
          <mxGeometry x="-0.1659" relative="1" as="geometry">
            <mxPoint as="offset" />
          </mxGeometry>
        </mxCell>
        <mxCell id="FU2mFHKaWdH8SwG0TTAj-14" style="edgeStyle=orthogonalEdgeStyle;rounded=0;orthogonalLoop=1;jettySize=auto;html=1;entryX=0.5;entryY=0;entryDx=0;entryDy=0;" parent="1" source="FU2mFHKaWdH8SwG0TTAj-7" target="FU2mFHKaWdH8SwG0TTAj-9" edge="1">
          <mxGeometry relative="1" as="geometry" />
        </mxCell>
        <mxCell id="FU2mFHKaWdH8SwG0TTAj-17" value="بیمار" style="edgeLabel;html=1;align=center;verticalAlign=middle;resizable=0;points=[];" parent="FU2mFHKaWdH8SwG0TTAj-14" vertex="1" connectable="0">
          <mxGeometry x="0.5213" y="-1" relative="1" as="geometry">
            <mxPoint as="offset" />
          </mxGeometry>
        </mxCell>
        <mxCell id="FU2mFHKaWdH8SwG0TTAj-15" style="edgeStyle=orthogonalEdgeStyle;rounded=0;orthogonalLoop=1;jettySize=auto;html=1;entryX=0.5;entryY=0;entryDx=0;entryDy=0;" parent="1" source="FU2mFHKaWdH8SwG0TTAj-7" target="FU2mFHKaWdH8SwG0TTAj-11" edge="1">
          <mxGeometry relative="1" as="geometry" />
        </mxCell>
        <mxCell id="FU2mFHKaWdH8SwG0TTAj-16" value="بهیار" style="edgeLabel;html=1;align=center;verticalAlign=middle;resizable=0;points=[];" parent="FU2mFHKaWdH8SwG0TTAj-15" vertex="1" connectable="0">
          <mxGeometry x="0.5008" relative="1" as="geometry">
            <mxPoint y="2" as="offset" />
          </mxGeometry>
        </mxCell>
        <mxCell id="FU2mFHKaWdH8SwG0TTAj-7" value="وارد کردن نقش" style="rhombus;whiteSpace=wrap;html=1;fillColor=#dae8fc;strokeColor=#6c8ebf;" parent="1" vertex="1">
          <mxGeometry x="327.75" y="200" width="169" height="80" as="geometry" />
        </mxCell>
        <mxCell id="FU2mFHKaWdH8SwG0TTAj-9" value="پر کردن فرم مخصوص بیمار" style="rounded=1;whiteSpace=wrap;html=1;fillColor=#fff2cc;strokeColor=#d6b656;" parent="1" vertex="1">
          <mxGeometry x="183" y="370" width="120" height="60" as="geometry" />
        </mxCell>
        <mxCell id="FU2mFHKaWdH8SwG0TTAj-10" value="پر کردن فرم مخصوص پزشک" style="rounded=1;whiteSpace=wrap;html=1;fillColor=#fff2cc;strokeColor=#d6b656;" parent="1" vertex="1">
          <mxGeometry x="353" y="370" width="120" height="60" as="geometry" />
        </mxCell>
        <mxCell id="FU2mFHKaWdH8SwG0TTAj-11" value="پر کردن فرم مخصوص بهیار" style="rounded=1;whiteSpace=wrap;html=1;fillColor=#fff2cc;strokeColor=#d6b656;" parent="1" vertex="1">
          <mxGeometry x="525.49" y="370" width="120" height="60" as="geometry" />
        </mxCell>
        <mxCell id="FU2mFHKaWdH8SwG0TTAj-21" style="edgeStyle=orthogonalEdgeStyle;rounded=0;orthogonalLoop=1;jettySize=auto;html=1;entryX=0.5;entryY=0;entryDx=0;entryDy=0;" parent="1" source="FU2mFHKaWdH8SwG0TTAj-18" target="AQqeIJzm-4LwvkK71rF2-73" edge="1">
          <mxGeometry relative="1" as="geometry" />
        </mxCell>
        <mxCell id="FU2mFHKaWdH8SwG0TTAj-18" value="انتخاب گزینه ثبت" style="rounded=1;whiteSpace=wrap;html=1;fillColor=#fff2cc;strokeColor=#d6b656;" parent="1" vertex="1">
          <mxGeometry x="525" y="480" width="120" height="60" as="geometry" />
        </mxCell>
        <mxCell id="FU2mFHKaWdH8SwG0TTAj-23" style="edgeStyle=orthogonalEdgeStyle;rounded=0;orthogonalLoop=1;jettySize=auto;html=1;entryX=0.5;entryY=0;entryDx=0;entryDy=0;" parent="1" source="FU2mFHKaWdH8SwG0TTAj-19" target="AQqeIJzm-4LwvkK71rF2-59" edge="1">
          <mxGeometry relative="1" as="geometry" />
        </mxCell>
        <mxCell id="FU2mFHKaWdH8SwG0TTAj-19" value="انتخاب گزینه ثبت" style="rounded=1;whiteSpace=wrap;html=1;fillColor=#fff2cc;strokeColor=#d6b656;" parent="1" vertex="1">
          <mxGeometry x="353.12" y="480" width="120" height="60" as="geometry" />
        </mxCell>
        <mxCell id="FU2mFHKaWdH8SwG0TTAj-24" style="edgeStyle=orthogonalEdgeStyle;rounded=0;orthogonalLoop=1;jettySize=auto;html=1;entryX=0.5;entryY=0;entryDx=0;entryDy=0;" parent="1" source="FU2mFHKaWdH8SwG0TTAj-20" target="AQqeIJzm-4LwvkK71rF2-51" edge="1">
          <mxGeometry relative="1" as="geometry" />
        </mxCell>
        <mxCell id="FU2mFHKaWdH8SwG0TTAj-20" value="انتخاب گزینه ثبت" style="rounded=1;whiteSpace=wrap;html=1;fillColor=#fff2cc;strokeColor=#d6b656;" parent="1" vertex="1">
          <mxGeometry x="183" y="480" width="120" height="60" as="geometry" />
        </mxCell>
        <mxCell id="FU2mFHKaWdH8SwG0TTAj-25" value="وارد شدن به پنل ورود" style="rounded=1;whiteSpace=wrap;html=1;fillColor=#fff2cc;strokeColor=#d6b656;" parent="1" vertex="1">
          <mxGeometry x="183" y="690" width="120" height="60" as="geometry" />
        </mxCell>
        <mxCell id="FU2mFHKaWdH8SwG0TTAj-26" value="وارد شدن به پنل ورود" style="rounded=1;whiteSpace=wrap;html=1;fillColor=#fff2cc;strokeColor=#d6b656;" parent="1" vertex="1">
          <mxGeometry x="352.25" y="690" width="120" height="60" as="geometry" />
        </mxCell>
        <mxCell id="FU2mFHKaWdH8SwG0TTAj-27" value="وارد شدن به پنل ورود&amp;nbsp;" style="rounded=1;whiteSpace=wrap;html=1;fillColor=#fff2cc;strokeColor=#d6b656;" parent="1" vertex="1">
          <mxGeometry x="525.5" y="690" width="120" height="60" as="geometry" />
        </mxCell>
      </root>
    </mxGraphModel>
  </diagram>
  <diagram id="Te4KLHVubChY0bSY9mck" name="ورود">
    <mxGraphModel dx="1434" dy="907" grid="0" gridSize="10" guides="1" tooltips="1" connect="1" arrows="1" fold="1" page="1" pageScale="1" pageWidth="850" pageHeight="1100" math="0" shadow="0">
      <root>
        <mxCell id="0" />
        <mxCell id="1" parent="0" />
        <mxCell id="pQG8heWf9BG__WIYjP68-1" style="edgeStyle=orthogonalEdgeStyle;rounded=0;orthogonalLoop=1;jettySize=auto;html=1;entryX=0.5;entryY=0;entryDx=0;entryDy=0;" parent="1" source="pQG8heWf9BG__WIYjP68-2" target="pQG8heWf9BG__WIYjP68-3" edge="1">
          <mxGeometry relative="1" as="geometry" />
        </mxCell>
        <mxCell id="pQG8heWf9BG__WIYjP68-2" value="" style="ellipse;html=1;shape=startState;fillColor=#000000;strokeColor=#ff0000;" parent="1" vertex="1">
          <mxGeometry x="408.12" y="18" width="30" height="30" as="geometry" />
        </mxCell>
        <mxCell id="88r36tTjinvD_vKy1T7o-3" style="edgeStyle=orthogonalEdgeStyle;rounded=0;orthogonalLoop=1;jettySize=auto;html=1;entryX=0.5;entryY=0;entryDx=0;entryDy=0;" parent="1" source="pQG8heWf9BG__WIYjP68-3" target="88r36tTjinvD_vKy1T7o-2" edge="1">
          <mxGeometry relative="1" as="geometry" />
        </mxCell>
        <mxCell id="pQG8heWf9BG__WIYjP68-3" value="انتخاب گزینه ورود" style="rounded=1;whiteSpace=wrap;html=1;fillColor=#fff2cc;strokeColor=#d6b656;" parent="1" vertex="1">
          <mxGeometry x="363.12" y="102" width="120" height="60" as="geometry" />
        </mxCell>
        <mxCell id="UgArdJY0Bk9Y33apKqT9-7" style="edgeStyle=orthogonalEdgeStyle;rounded=0;orthogonalLoop=1;jettySize=auto;html=1;exitX=0;exitY=0.5;exitDx=0;exitDy=0;entryX=1;entryY=0.5;entryDx=0;entryDy=0;" parent="1" source="pQG8heWf9BG__WIYjP68-4" target="UgArdJY0Bk9Y33apKqT9-1" edge="1">
          <mxGeometry relative="1" as="geometry" />
        </mxCell>
        <mxCell id="UgArdJY0Bk9Y33apKqT9-14" value="قبول" style="edgeLabel;html=1;align=center;verticalAlign=middle;resizable=0;points=[];" parent="UgArdJY0Bk9Y33apKqT9-7" vertex="1" connectable="0">
          <mxGeometry x="-0.0732" y="1" relative="1" as="geometry">
            <mxPoint as="offset" />
          </mxGeometry>
        </mxCell>
        <mxCell id="UgArdJY0Bk9Y33apKqT9-10" style="edgeStyle=orthogonalEdgeStyle;rounded=0;orthogonalLoop=1;jettySize=auto;html=1;entryX=0.5;entryY=0;entryDx=0;entryDy=0;" parent="1" source="pQG8heWf9BG__WIYjP68-4" target="UgArdJY0Bk9Y33apKqT9-4" edge="1">
          <mxGeometry relative="1" as="geometry" />
        </mxCell>
        <mxCell id="UgArdJY0Bk9Y33apKqT9-17" value="رد" style="edgeLabel;html=1;align=center;verticalAlign=middle;resizable=0;points=[];" parent="UgArdJY0Bk9Y33apKqT9-10" vertex="1" connectable="0">
          <mxGeometry x="-0.0413" y="1" relative="1" as="geometry">
            <mxPoint as="offset" />
          </mxGeometry>
        </mxCell>
        <mxCell id="pQG8heWf9BG__WIYjP68-4" value="جست و جو در دیتابیس بیماران" style="rhombus;whiteSpace=wrap;html=1;fillColor=#dae8fc;strokeColor=#6c8ebf;" parent="1" vertex="1">
          <mxGeometry x="338.62" y="336" width="169" height="80" as="geometry" />
        </mxCell>
        <mxCell id="UgArdJY0Bk9Y33apKqT9-13" style="edgeStyle=orthogonalEdgeStyle;rounded=0;orthogonalLoop=1;jettySize=auto;html=1;" parent="1" source="88r36tTjinvD_vKy1T7o-2" target="pQG8heWf9BG__WIYjP68-4" edge="1">
          <mxGeometry relative="1" as="geometry" />
        </mxCell>
        <mxCell id="88r36tTjinvD_vKy1T7o-2" value="وارد کردن نام کاربری و رمزعبور" style="rounded=1;whiteSpace=wrap;html=1;fillColor=#fff2cc;strokeColor=#d6b656;" parent="1" vertex="1">
          <mxGeometry x="363.12" y="219" width="120" height="60" as="geometry" />
        </mxCell>
        <mxCell id="UgArdJY0Bk9Y33apKqT9-1" value="وارد شدن به پنل بیمار" style="rounded=1;whiteSpace=wrap;html=1;fillColor=#fff2cc;strokeColor=#d6b656;" parent="1" vertex="1">
          <mxGeometry x="136" y="346" width="120" height="60" as="geometry" />
        </mxCell>
        <mxCell id="UgArdJY0Bk9Y33apKqT9-2" value="وارد شدن به پنل پزشک" style="rounded=1;whiteSpace=wrap;html=1;fillColor=#fff2cc;strokeColor=#d6b656;" parent="1" vertex="1">
          <mxGeometry x="589" y="486" width="120" height="60" as="geometry" />
        </mxCell>
        <mxCell id="UgArdJY0Bk9Y33apKqT9-3" value="وارد شدن به پنل بهیار" style="rounded=1;whiteSpace=wrap;html=1;fillColor=#fff2cc;strokeColor=#d6b656;" parent="1" vertex="1">
          <mxGeometry x="136" y="624" width="120" height="60" as="geometry" />
        </mxCell>
        <mxCell id="UgArdJY0Bk9Y33apKqT9-8" style="edgeStyle=orthogonalEdgeStyle;rounded=0;orthogonalLoop=1;jettySize=auto;html=1;entryX=0;entryY=0.5;entryDx=0;entryDy=0;" parent="1" source="UgArdJY0Bk9Y33apKqT9-4" target="UgArdJY0Bk9Y33apKqT9-2" edge="1">
          <mxGeometry relative="1" as="geometry" />
        </mxCell>
        <mxCell id="UgArdJY0Bk9Y33apKqT9-15" value="قبول" style="edgeLabel;html=1;align=center;verticalAlign=middle;resizable=0;points=[];" parent="UgArdJY0Bk9Y33apKqT9-8" vertex="1" connectable="0">
          <mxGeometry x="-0.079" relative="1" as="geometry">
            <mxPoint as="offset" />
          </mxGeometry>
        </mxCell>
        <mxCell id="UgArdJY0Bk9Y33apKqT9-12" style="edgeStyle=orthogonalEdgeStyle;rounded=0;orthogonalLoop=1;jettySize=auto;html=1;" parent="1" source="UgArdJY0Bk9Y33apKqT9-4" target="UgArdJY0Bk9Y33apKqT9-5" edge="1">
          <mxGeometry relative="1" as="geometry" />
        </mxCell>
        <mxCell id="UgArdJY0Bk9Y33apKqT9-19" value="رد" style="edgeLabel;html=1;align=center;verticalAlign=middle;resizable=0;points=[];" parent="UgArdJY0Bk9Y33apKqT9-12" vertex="1" connectable="0">
          <mxGeometry x="-0.0411" relative="1" as="geometry">
            <mxPoint as="offset" />
          </mxGeometry>
        </mxCell>
        <mxCell id="UgArdJY0Bk9Y33apKqT9-4" value="جست و جو&amp;nbsp;در دیتابیس پزشکان" style="rhombus;whiteSpace=wrap;html=1;fillColor=#dae8fc;strokeColor=#6c8ebf;" parent="1" vertex="1">
          <mxGeometry x="338.62" y="476" width="169" height="80" as="geometry" />
        </mxCell>
        <mxCell id="UgArdJY0Bk9Y33apKqT9-6" style="edgeStyle=orthogonalEdgeStyle;rounded=0;orthogonalLoop=1;jettySize=auto;html=1;entryX=1;entryY=0.5;entryDx=0;entryDy=0;" parent="1" source="UgArdJY0Bk9Y33apKqT9-5" target="UgArdJY0Bk9Y33apKqT9-3" edge="1">
          <mxGeometry relative="1" as="geometry" />
        </mxCell>
        <mxCell id="UgArdJY0Bk9Y33apKqT9-16" value="قبول" style="edgeLabel;html=1;align=center;verticalAlign=middle;resizable=0;points=[];" parent="UgArdJY0Bk9Y33apKqT9-6" vertex="1" connectable="0">
          <mxGeometry x="-0.1193" relative="1" as="geometry">
            <mxPoint as="offset" />
          </mxGeometry>
        </mxCell>
        <mxCell id="UgArdJY0Bk9Y33apKqT9-20" style="edgeStyle=orthogonalEdgeStyle;rounded=0;orthogonalLoop=1;jettySize=auto;html=1;entryX=1;entryY=0.5;entryDx=0;entryDy=0;" parent="1" source="UgArdJY0Bk9Y33apKqT9-5" target="88r36tTjinvD_vKy1T7o-2" edge="1">
          <mxGeometry relative="1" as="geometry">
            <Array as="points">
              <mxPoint x="740" y="654" />
              <mxPoint x="740" y="447" />
              <mxPoint x="741" y="447" />
              <mxPoint x="741" y="249" />
            </Array>
          </mxGeometry>
        </mxCell>
        <mxCell id="UgArdJY0Bk9Y33apKqT9-21" value="رد" style="edgeLabel;html=1;align=center;verticalAlign=middle;resizable=0;points=[];" parent="UgArdJY0Bk9Y33apKqT9-20" vertex="1" connectable="0">
          <mxGeometry x="0.112" relative="1" as="geometry">
            <mxPoint as="offset" />
          </mxGeometry>
        </mxCell>
        <mxCell id="UgArdJY0Bk9Y33apKqT9-5" value="جست و جو&amp;nbsp;در دیتابیس بهیاران" style="rhombus;whiteSpace=wrap;html=1;fillColor=#dae8fc;strokeColor=#6c8ebf;" parent="1" vertex="1">
          <mxGeometry x="338.62" y="614" width="169" height="80" as="geometry" />
        </mxCell>
      </root>
    </mxGraphModel>
  </diagram>
  <diagram id="BHZnrNLnJnv8liGBW0W6" name="ثبت نوبت">
    <mxGraphModel dx="1195" dy="659" grid="0" gridSize="10" guides="1" tooltips="1" connect="1" arrows="1" fold="1" page="1" pageScale="1" pageWidth="850" pageHeight="1400" math="0" shadow="1">
      <root>
        <mxCell id="0" />
        <mxCell id="1" parent="0" />
        <mxCell id="GOk-pDdKcaSjYP1GK6xx-2" value="" style="ellipse;html=1;shape=startState;fillColor=#000000;strokeColor=#ff0000;" parent="1" vertex="1">
          <mxGeometry x="408.12" y="18" width="30" height="30" as="geometry" />
        </mxCell>
        <mxCell id="SbawjOaqeIdmIskxYOFH-6" style="edgeStyle=orthogonalEdgeStyle;rounded=0;orthogonalLoop=1;jettySize=auto;html=1;entryX=0.5;entryY=0;entryDx=0;entryDy=0;" parent="1" source="GOk-pDdKcaSjYP1GK6xx-3" target="SbawjOaqeIdmIskxYOFH-1" edge="1">
          <mxGeometry relative="1" as="geometry" />
        </mxCell>
        <mxCell id="GOk-pDdKcaSjYP1GK6xx-3" value="انتخاب گزینه پزشکان" style="rounded=1;whiteSpace=wrap;html=1;fillColor=#fff2cc;strokeColor=#d6b656;" parent="1" vertex="1">
          <mxGeometry x="363.12" y="176" width="120" height="60" as="geometry" />
        </mxCell>
        <mxCell id="SbawjOaqeIdmIskxYOFH-20" style="edgeStyle=orthogonalEdgeStyle;rounded=0;orthogonalLoop=1;jettySize=auto;html=1;entryX=0.5;entryY=0;entryDx=0;entryDy=0;" parent="1" source="GOk-pDdKcaSjYP1GK6xx-4" target="SbawjOaqeIdmIskxYOFH-18" edge="1">
          <mxGeometry relative="1" as="geometry" />
        </mxCell>
        <mxCell id="SbawjOaqeIdmIskxYOFH-21" value="موفق" style="edgeLabel;html=1;align=center;verticalAlign=middle;resizable=0;points=[];" parent="SbawjOaqeIdmIskxYOFH-20" vertex="1" connectable="0">
          <mxGeometry x="-0.1005" y="1" relative="1" as="geometry">
            <mxPoint as="offset" />
          </mxGeometry>
        </mxCell>
        <mxCell id="SbawjOaqeIdmIskxYOFH-22" style="edgeStyle=orthogonalEdgeStyle;rounded=0;orthogonalLoop=1;jettySize=auto;html=1;entryX=1;entryY=0.5;entryDx=0;entryDy=0;" parent="1" source="GOk-pDdKcaSjYP1GK6xx-4" target="SbawjOaqeIdmIskxYOFH-13" edge="1">
          <mxGeometry relative="1" as="geometry">
            <Array as="points">
              <mxPoint x="528" y="1128" />
              <mxPoint x="528" y="1004" />
            </Array>
          </mxGeometry>
        </mxCell>
        <mxCell id="SbawjOaqeIdmIskxYOFH-23" value="ناموفق" style="edgeLabel;html=1;align=center;verticalAlign=middle;resizable=0;points=[];" parent="SbawjOaqeIdmIskxYOFH-22" vertex="1" connectable="0">
          <mxGeometry x="-0.0872" y="1" relative="1" as="geometry">
            <mxPoint as="offset" />
          </mxGeometry>
        </mxCell>
        <mxCell id="GOk-pDdKcaSjYP1GK6xx-4" value="عملیات پرداخت" style="rhombus;whiteSpace=wrap;html=1;fillColor=#dae8fc;strokeColor=#6c8ebf;" parent="1" vertex="1">
          <mxGeometry x="338.62" y="1088" width="169" height="80" as="geometry" />
        </mxCell>
        <mxCell id="SbawjOaqeIdmIskxYOFH-7" style="edgeStyle=orthogonalEdgeStyle;rounded=0;orthogonalLoop=1;jettySize=auto;html=1;entryX=0.5;entryY=0;entryDx=0;entryDy=0;" parent="1" source="SbawjOaqeIdmIskxYOFH-1" target="SbawjOaqeIdmIskxYOFH-2" edge="1">
          <mxGeometry relative="1" as="geometry" />
        </mxCell>
        <mxCell id="SbawjOaqeIdmIskxYOFH-8" style="edgeStyle=orthogonalEdgeStyle;rounded=0;orthogonalLoop=1;jettySize=auto;html=1;entryX=1;entryY=0.5;entryDx=0;entryDy=0;" parent="1" source="SbawjOaqeIdmIskxYOFH-1" target="SbawjOaqeIdmIskxYOFH-3" edge="1">
          <mxGeometry relative="1" as="geometry">
            <mxPoint x="495" y="557" as="targetPoint" />
            <Array as="points">
              <mxPoint x="525" y="320" />
              <mxPoint x="525" y="548" />
            </Array>
          </mxGeometry>
        </mxCell>
        <mxCell id="SbawjOaqeIdmIskxYOFH-1" value="انتخاب پزشک مورد نظر به کمک سرچ و فیلتر" style="rounded=1;whiteSpace=wrap;html=1;fillColor=#fff2cc;strokeColor=#d6b656;" parent="1" vertex="1">
          <mxGeometry x="363.12" y="290" width="120" height="60" as="geometry" />
        </mxCell>
        <mxCell id="SbawjOaqeIdmIskxYOFH-9" style="edgeStyle=orthogonalEdgeStyle;rounded=0;orthogonalLoop=1;jettySize=auto;html=1;entryX=0.5;entryY=0;entryDx=0;entryDy=0;" parent="1" source="SbawjOaqeIdmIskxYOFH-2" target="SbawjOaqeIdmIskxYOFH-3" edge="1">
          <mxGeometry relative="1" as="geometry" />
        </mxCell>
        <mxCell id="SbawjOaqeIdmIskxYOFH-2" value="مشاهده پروفایل پزشک" style="rounded=1;whiteSpace=wrap;html=1;fillColor=#fff2cc;strokeColor=#d6b656;" parent="1" vertex="1">
          <mxGeometry x="363.12" y="404" width="120" height="60" as="geometry" />
        </mxCell>
        <mxCell id="SbawjOaqeIdmIskxYOFH-10" style="edgeStyle=orthogonalEdgeStyle;rounded=0;orthogonalLoop=1;jettySize=auto;html=1;entryX=0.5;entryY=0;entryDx=0;entryDy=0;" parent="1" source="SbawjOaqeIdmIskxYOFH-3" target="SbawjOaqeIdmIskxYOFH-4" edge="1">
          <mxGeometry relative="1" as="geometry" />
        </mxCell>
        <mxCell id="SbawjOaqeIdmIskxYOFH-3" value="انتخاب گزینه درخواست نوبت" style="rounded=1;whiteSpace=wrap;html=1;fillColor=#fff2cc;strokeColor=#d6b656;" parent="1" vertex="1">
          <mxGeometry x="363.12" y="518" width="120" height="60" as="geometry" />
        </mxCell>
        <mxCell id="SbawjOaqeIdmIskxYOFH-11" style="edgeStyle=orthogonalEdgeStyle;rounded=0;orthogonalLoop=1;jettySize=auto;html=1;entryX=0.5;entryY=0;entryDx=0;entryDy=0;" parent="1" source="SbawjOaqeIdmIskxYOFH-4" target="SbawjOaqeIdmIskxYOFH-5" edge="1">
          <mxGeometry relative="1" as="geometry" />
        </mxCell>
        <mxCell id="SbawjOaqeIdmIskxYOFH-4" value="انتخاب تاریخ در پنجره بازشده" style="rounded=1;whiteSpace=wrap;html=1;fillColor=#fff2cc;strokeColor=#d6b656;" parent="1" vertex="1">
          <mxGeometry x="363.12" y="632" width="120" height="60" as="geometry" />
        </mxCell>
        <mxCell id="SbawjOaqeIdmIskxYOFH-14" style="edgeStyle=orthogonalEdgeStyle;rounded=0;orthogonalLoop=1;jettySize=auto;html=1;entryX=0.5;entryY=0;entryDx=0;entryDy=0;" parent="1" source="SbawjOaqeIdmIskxYOFH-5" target="SbawjOaqeIdmIskxYOFH-12" edge="1">
          <mxGeometry relative="1" as="geometry" />
        </mxCell>
        <mxCell id="SbawjOaqeIdmIskxYOFH-5" value="انتخاب زمان در پنجره بازشده" style="rounded=1;whiteSpace=wrap;html=1;fillColor=#fff2cc;strokeColor=#d6b656;" parent="1" vertex="1">
          <mxGeometry x="363.12" y="746" width="120" height="60" as="geometry" />
        </mxCell>
        <mxCell id="SbawjOaqeIdmIskxYOFH-15" style="edgeStyle=orthogonalEdgeStyle;rounded=0;orthogonalLoop=1;jettySize=auto;html=1;entryX=0.5;entryY=0;entryDx=0;entryDy=0;" parent="1" source="SbawjOaqeIdmIskxYOFH-12" target="SbawjOaqeIdmIskxYOFH-13" edge="1">
          <mxGeometry relative="1" as="geometry" />
        </mxCell>
        <mxCell id="SbawjOaqeIdmIskxYOFH-12" value="انتخاب نوع مراجعه" style="rounded=1;whiteSpace=wrap;html=1;fillColor=#fff2cc;strokeColor=#d6b656;" parent="1" vertex="1">
          <mxGeometry x="363.12" y="860" width="120" height="60" as="geometry" />
        </mxCell>
        <mxCell id="SbawjOaqeIdmIskxYOFH-17" style="edgeStyle=orthogonalEdgeStyle;rounded=0;orthogonalLoop=1;jettySize=auto;html=1;entryX=0.499;entryY=0.01;entryDx=0;entryDy=0;entryPerimeter=0;" parent="1" source="SbawjOaqeIdmIskxYOFH-13" target="GOk-pDdKcaSjYP1GK6xx-4" edge="1">
          <mxGeometry relative="1" as="geometry">
            <mxPoint x="423.1199999999999" y="1088" as="targetPoint" />
          </mxGeometry>
        </mxCell>
        <mxCell id="SbawjOaqeIdmIskxYOFH-13" value="انتخاب گزینه پرداخت" style="rounded=1;whiteSpace=wrap;html=1;fillColor=#fff2cc;strokeColor=#d6b656;" parent="1" vertex="1">
          <mxGeometry x="363.12" y="974" width="120" height="60" as="geometry" />
        </mxCell>
        <mxCell id="SbawjOaqeIdmIskxYOFH-18" value="انتخاب گزینه ثبت نوبت" style="rounded=1;whiteSpace=wrap;html=1;fillColor=#fff2cc;strokeColor=#d6b656;" parent="1" vertex="1">
          <mxGeometry x="363.12" y="1222" width="120" height="60" as="geometry" />
        </mxCell>
        <mxCell id="0Cap5Tvce9wN0vWn_NCf-1" value="&lt;font color=&quot;#ff2e9d&quot; style=&quot;font-size: 41px;&quot; face=&quot;Tahoma&quot;&gt;پنل بیمار&lt;/font&gt;&lt;font style=&quot;font-size: 41px;&quot; face=&quot;_kxpbe5iIvoVPWevJDPW&quot;&gt;&lt;br&gt;&lt;/font&gt;" style="text;html=1;align=center;verticalAlign=middle;resizable=0;points=[];autosize=1;strokeColor=none;fillColor=none;" parent="1" vertex="1">
          <mxGeometry x="630" y="22" width="164" height="64" as="geometry" />
        </mxCell>
        <mxCell id="cA-n31pJDGjB4cf4B2cd-2" value="" style="edgeStyle=orthogonalEdgeStyle;rounded=0;orthogonalLoop=1;jettySize=auto;html=1;" edge="1" parent="1">
          <mxGeometry relative="1" as="geometry">
            <mxPoint x="580" y="62" as="sourcePoint" />
            <mxPoint x="580" y="116" as="targetPoint" />
          </mxGeometry>
        </mxCell>
      </root>
    </mxGraphModel>
  </diagram>
  <diagram id="VR30BGKvJnrLNT1NmAO3" name="ثبت‌نظر">
    <mxGraphModel dx="1434" dy="791" grid="0" gridSize="10" guides="1" tooltips="1" connect="1" arrows="1" fold="1" page="1" pageScale="1" pageWidth="850" pageHeight="1100" math="0" shadow="0">
      <root>
        <mxCell id="0" />
        <mxCell id="1" parent="0" />
        <mxCell id="Qh9AhKG1o2BDEaIBMA0E-15" style="edgeStyle=orthogonalEdgeStyle;rounded=0;orthogonalLoop=1;jettySize=auto;html=1;entryX=0;entryY=0.5;entryDx=0;entryDy=0;" parent="1" source="6g6nurmHRTCGuYRDILE0-4" target="Qh9AhKG1o2BDEaIBMA0E-13" edge="1">
          <mxGeometry relative="1" as="geometry" />
        </mxCell>
        <mxCell id="Qh9AhKG1o2BDEaIBMA0E-18" value="خیر" style="edgeLabel;html=1;align=center;verticalAlign=middle;resizable=0;points=[];" parent="Qh9AhKG1o2BDEaIBMA0E-15" vertex="1" connectable="0">
          <mxGeometry x="0.0126" y="-1" relative="1" as="geometry">
            <mxPoint as="offset" />
          </mxGeometry>
        </mxCell>
        <mxCell id="Qh9AhKG1o2BDEaIBMA0E-16" style="edgeStyle=orthogonalEdgeStyle;rounded=0;orthogonalLoop=1;jettySize=auto;html=1;entryX=0.5;entryY=0;entryDx=0;entryDy=0;" parent="1" source="6g6nurmHRTCGuYRDILE0-4" target="Qh9AhKG1o2BDEaIBMA0E-11" edge="1">
          <mxGeometry relative="1" as="geometry" />
        </mxCell>
        <mxCell id="Qh9AhKG1o2BDEaIBMA0E-20" value="بله" style="edgeLabel;html=1;align=center;verticalAlign=middle;resizable=0;points=[];" parent="Qh9AhKG1o2BDEaIBMA0E-16" vertex="1" connectable="0">
          <mxGeometry x="-0.1439" relative="1" as="geometry">
            <mxPoint as="offset" />
          </mxGeometry>
        </mxCell>
        <mxCell id="6g6nurmHRTCGuYRDILE0-4" value="سابقه ویزیت توسط پزشک انتخاب شده" style="rhombus;whiteSpace=wrap;html=1;fillColor=#dae8fc;strokeColor=#6c8ebf;" parent="1" vertex="1">
          <mxGeometry x="338.62" y="672" width="169" height="80" as="geometry" />
        </mxCell>
        <mxCell id="Qh9AhKG1o2BDEaIBMA0E-1" style="edgeStyle=orthogonalEdgeStyle;rounded=0;orthogonalLoop=1;jettySize=auto;html=1;entryX=0.5;entryY=0;entryDx=0;entryDy=0;" parent="1" source="Qh9AhKG1o2BDEaIBMA0E-2" target="Qh9AhKG1o2BDEaIBMA0E-4" edge="1">
          <mxGeometry relative="1" as="geometry" />
        </mxCell>
        <mxCell id="Qh9AhKG1o2BDEaIBMA0E-2" value="" style="ellipse;html=1;shape=startState;fillColor=#000000;strokeColor=#ff0000;" parent="1" vertex="1">
          <mxGeometry x="408.12" y="18" width="30" height="30" as="geometry" />
        </mxCell>
        <mxCell id="Qh9AhKG1o2BDEaIBMA0E-3" style="edgeStyle=orthogonalEdgeStyle;rounded=0;orthogonalLoop=1;jettySize=auto;html=1;entryX=0.5;entryY=0;entryDx=0;entryDy=0;" parent="1" source="Qh9AhKG1o2BDEaIBMA0E-4" target="Qh9AhKG1o2BDEaIBMA0E-6" edge="1">
          <mxGeometry relative="1" as="geometry" />
        </mxCell>
        <mxCell id="Qh9AhKG1o2BDEaIBMA0E-4" value="انتخاب گزینه پزشکان" style="rounded=1;whiteSpace=wrap;html=1;fillColor=#fff2cc;strokeColor=#d6b656;" parent="1" vertex="1">
          <mxGeometry x="363.12" y="102" width="120" height="60" as="geometry" />
        </mxCell>
        <mxCell id="Qh9AhKG1o2BDEaIBMA0E-5" style="edgeStyle=orthogonalEdgeStyle;rounded=0;orthogonalLoop=1;jettySize=auto;html=1;entryX=0.5;entryY=0;entryDx=0;entryDy=0;" parent="1" source="Qh9AhKG1o2BDEaIBMA0E-6" target="Qh9AhKG1o2BDEaIBMA0E-8" edge="1">
          <mxGeometry relative="1" as="geometry" />
        </mxCell>
        <mxCell id="Qh9AhKG1o2BDEaIBMA0E-6" value="انتخاب پزشک مورد نظر با سرچ و فیلتر" style="rounded=1;whiteSpace=wrap;html=1;fillColor=#fff2cc;strokeColor=#d6b656;" parent="1" vertex="1">
          <mxGeometry x="363.12" y="216" width="120" height="60" as="geometry" />
        </mxCell>
        <mxCell id="Qh9AhKG1o2BDEaIBMA0E-10" style="edgeStyle=orthogonalEdgeStyle;rounded=0;orthogonalLoop=1;jettySize=auto;html=1;entryX=0.5;entryY=0;entryDx=0;entryDy=0;" parent="1" source="Qh9AhKG1o2BDEaIBMA0E-8" target="Qh9AhKG1o2BDEaIBMA0E-9" edge="1">
          <mxGeometry relative="1" as="geometry" />
        </mxCell>
        <mxCell id="Qh9AhKG1o2BDEaIBMA0E-8" value="ورود به پروفایل پزشک" style="rounded=1;whiteSpace=wrap;html=1;fillColor=#fff2cc;strokeColor=#d6b656;" parent="1" vertex="1">
          <mxGeometry x="363.12" y="330" width="120" height="60" as="geometry" />
        </mxCell>
        <mxCell id="p8ImAUCRDZYUJDjn4iX5-1" value="" style="edgeStyle=orthogonalEdgeStyle;rounded=0;orthogonalLoop=1;jettySize=auto;html=1;" parent="1" source="Qh9AhKG1o2BDEaIBMA0E-9" target="Qh9AhKG1o2BDEaIBMA0E-12" edge="1">
          <mxGeometry relative="1" as="geometry" />
        </mxCell>
        <mxCell id="Qh9AhKG1o2BDEaIBMA0E-9" value="وارد کردن نظر خود در بخش نظرات" style="rounded=1;whiteSpace=wrap;html=1;fillColor=#fff2cc;strokeColor=#d6b656;" parent="1" vertex="1">
          <mxGeometry x="363.12" y="444" width="120" height="60" as="geometry" />
        </mxCell>
        <mxCell id="Qh9AhKG1o2BDEaIBMA0E-11" value="ثبت شدن نظر" style="rounded=1;whiteSpace=wrap;html=1;fillColor=#fff2cc;strokeColor=#d6b656;" parent="1" vertex="1">
          <mxGeometry x="363.12" y="806" width="120" height="60" as="geometry" />
        </mxCell>
        <mxCell id="Qh9AhKG1o2BDEaIBMA0E-17" style="edgeStyle=orthogonalEdgeStyle;rounded=0;orthogonalLoop=1;jettySize=auto;html=1;entryX=0.5;entryY=0;entryDx=0;entryDy=0;" parent="1" source="Qh9AhKG1o2BDEaIBMA0E-12" target="6g6nurmHRTCGuYRDILE0-4" edge="1">
          <mxGeometry relative="1" as="geometry" />
        </mxCell>
        <mxCell id="Qh9AhKG1o2BDEaIBMA0E-12" value="انتخاب گزینه ثبت نظر" style="rounded=1;whiteSpace=wrap;html=1;fillColor=#fff2cc;strokeColor=#d6b656;" parent="1" vertex="1">
          <mxGeometry x="363.12" y="558" width="120" height="60" as="geometry" />
        </mxCell>
        <mxCell id="Qh9AhKG1o2BDEaIBMA0E-13" value="نمایش پیام مناسب و امتناع از ثبت نظر" style="rounded=1;whiteSpace=wrap;html=1;fillColor=#fff2cc;strokeColor=#d6b656;" parent="1" vertex="1">
          <mxGeometry x="587" y="682" width="120" height="60" as="geometry" />
        </mxCell>
        <mxCell id="bIQfzoI7zFbd-5c3XxNh-1" value="&lt;font color=&quot;#ff2e9d&quot; style=&quot;font-size: 41px;&quot; face=&quot;Tahoma&quot;&gt;پنل بیمار&lt;/font&gt;&lt;font style=&quot;font-size: 41px;&quot; face=&quot;_kxpbe5iIvoVPWevJDPW&quot;&gt;&lt;br&gt;&lt;/font&gt;" style="text;html=1;align=center;verticalAlign=middle;resizable=0;points=[];autosize=1;strokeColor=none;fillColor=none;" vertex="1" parent="1">
          <mxGeometry x="630" y="22" width="164" height="64" as="geometry" />
        </mxCell>
      </root>
    </mxGraphModel>
  </diagram>
  <diagram id="fYBQtBkKwtRONmZdYLNy" name="مشاهده نوبت‌‌ها">
    <mxGraphModel dx="1434" dy="791" grid="0" gridSize="10" guides="1" tooltips="1" connect="1" arrows="1" fold="1" page="1" pageScale="1" pageWidth="850" pageHeight="1100" math="0" shadow="1">
      <root>
        <mxCell id="0" />
        <mxCell id="1" parent="0" />
        <mxCell id="qfty7je8FE_Bhhk_TK2A-1" style="edgeStyle=orthogonalEdgeStyle;rounded=0;orthogonalLoop=1;jettySize=auto;html=1;entryX=0.5;entryY=0;entryDx=0;entryDy=0;" parent="1" source="qfty7je8FE_Bhhk_TK2A-2" target="qfty7je8FE_Bhhk_TK2A-3" edge="1">
          <mxGeometry relative="1" as="geometry" />
        </mxCell>
        <mxCell id="qfty7je8FE_Bhhk_TK2A-2" value="" style="ellipse;html=1;shape=startState;fillColor=#000000;strokeColor=#ff0000;" parent="1" vertex="1">
          <mxGeometry x="408.12" y="18" width="30" height="30" as="geometry" />
        </mxCell>
        <mxCell id="PshtFXwrjTgdQEfkBdOw-3" style="edgeStyle=orthogonalEdgeStyle;rounded=0;orthogonalLoop=1;jettySize=auto;html=1;entryX=0.5;entryY=0;entryDx=0;entryDy=0;" parent="1" source="qfty7je8FE_Bhhk_TK2A-3" target="PshtFXwrjTgdQEfkBdOw-1" edge="1">
          <mxGeometry relative="1" as="geometry" />
        </mxCell>
        <mxCell id="qfty7je8FE_Bhhk_TK2A-3" value="انتخاب گزینه تاریخچه نوبت‌ها" style="rounded=1;whiteSpace=wrap;html=1;fillColor=#fff2cc;strokeColor=#d6b656;" parent="1" vertex="1">
          <mxGeometry x="363.12" y="102" width="120" height="60" as="geometry" />
        </mxCell>
        <mxCell id="PshtFXwrjTgdQEfkBdOw-4" style="edgeStyle=orthogonalEdgeStyle;rounded=0;orthogonalLoop=1;jettySize=auto;html=1;entryX=0.5;entryY=0;entryDx=0;entryDy=0;" parent="1" source="PshtFXwrjTgdQEfkBdOw-1" target="PshtFXwrjTgdQEfkBdOw-2" edge="1">
          <mxGeometry relative="1" as="geometry" />
        </mxCell>
        <mxCell id="PshtFXwrjTgdQEfkBdOw-1" value="انتخاب هر کدام از نوبت‌های پیشین" style="rounded=1;whiteSpace=wrap;html=1;fillColor=#fff2cc;strokeColor=#d6b656;" parent="1" vertex="1">
          <mxGeometry x="363.12" y="216" width="120" height="60" as="geometry" />
        </mxCell>
        <mxCell id="PshtFXwrjTgdQEfkBdOw-2" value="مشاهده تاریخ و زمان هر نوبت و وضعیت ویزیت و گزارش ثبت شده بهیار" style="rounded=1;whiteSpace=wrap;html=1;fillColor=#fff2cc;strokeColor=#d6b656;" parent="1" vertex="1">
          <mxGeometry x="363.12" y="327" width="120" height="60" as="geometry" />
        </mxCell>
        <mxCell id="p2pjblhWBkF-__qh3PdA-1" value="&lt;font color=&quot;#ff2e9d&quot; style=&quot;font-size: 41px;&quot; face=&quot;Tahoma&quot;&gt;پنل بیمار&lt;/font&gt;&lt;font style=&quot;font-size: 41px;&quot; face=&quot;_kxpbe5iIvoVPWevJDPW&quot;&gt;&lt;br&gt;&lt;/font&gt;" style="text;html=1;align=center;verticalAlign=middle;resizable=0;points=[];autosize=1;strokeColor=none;fillColor=none;" vertex="1" parent="1">
          <mxGeometry x="630" y="22" width="164" height="64" as="geometry" />
        </mxCell>
      </root>
    </mxGraphModel>
  </diagram>
  <diagram id="NRDzAdY_Ec7jJUmq1Edi" name="استعلام نسخه">
    <mxGraphModel dx="1434" dy="907" grid="0" gridSize="10" guides="1" tooltips="1" connect="1" arrows="1" fold="1" page="1" pageScale="1" pageWidth="850" pageHeight="1100" math="0" shadow="1">
      <root>
        <mxCell id="0" />
        <mxCell id="1" parent="0" />
        <mxCell id="2PzvUG7s70PSUi5LqAIE-1" style="edgeStyle=orthogonalEdgeStyle;rounded=0;orthogonalLoop=1;jettySize=auto;html=1;entryX=0.5;entryY=0;entryDx=0;entryDy=0;" parent="1" source="2PzvUG7s70PSUi5LqAIE-2" target="2PzvUG7s70PSUi5LqAIE-3" edge="1">
          <mxGeometry relative="1" as="geometry" />
        </mxCell>
        <mxCell id="2PzvUG7s70PSUi5LqAIE-2" value="" style="ellipse;html=1;shape=startState;fillColor=#000000;strokeColor=#ff0000;" parent="1" vertex="1">
          <mxGeometry x="408.12" y="18" width="30" height="30" as="geometry" />
        </mxCell>
        <mxCell id="jEju3W6k9Q_0HqN9Yv6v-5" style="edgeStyle=orthogonalEdgeStyle;rounded=0;orthogonalLoop=1;jettySize=auto;html=1;entryX=0.5;entryY=0;entryDx=0;entryDy=0;" parent="1" source="2PzvUG7s70PSUi5LqAIE-3" target="jEju3W6k9Q_0HqN9Yv6v-1" edge="1">
          <mxGeometry relative="1" as="geometry" />
        </mxCell>
        <mxCell id="2PzvUG7s70PSUi5LqAIE-3" value="انتخاب گزینه تاریخچه نسخ" style="rounded=1;whiteSpace=wrap;html=1;fillColor=#fff2cc;strokeColor=#d6b656;" parent="1" vertex="1">
          <mxGeometry x="363.12" y="102" width="120" height="60" as="geometry" />
        </mxCell>
        <mxCell id="jEju3W6k9Q_0HqN9Yv6v-8" style="edgeStyle=orthogonalEdgeStyle;rounded=0;orthogonalLoop=1;jettySize=auto;html=1;entryX=0.5;entryY=0;entryDx=0;entryDy=0;" parent="1" source="jEju3W6k9Q_0HqN9Yv6v-1" target="jEju3W6k9Q_0HqN9Yv6v-2" edge="1">
          <mxGeometry relative="1" as="geometry" />
        </mxCell>
        <mxCell id="jEju3W6k9Q_0HqN9Yv6v-1" value="مشاهده نسخه‌ها همراه با وضعیت استعلام" style="rounded=1;whiteSpace=wrap;html=1;fillColor=#fff2cc;strokeColor=#d6b656;" parent="1" vertex="1">
          <mxGeometry x="363.12" y="216" width="120" height="60" as="geometry" />
        </mxCell>
        <mxCell id="jEju3W6k9Q_0HqN9Yv6v-9" style="edgeStyle=orthogonalEdgeStyle;rounded=0;orthogonalLoop=1;jettySize=auto;html=1;entryX=0.5;entryY=0;entryDx=0;entryDy=0;" parent="1" source="jEju3W6k9Q_0HqN9Yv6v-2" target="jEju3W6k9Q_0HqN9Yv6v-3" edge="1">
          <mxGeometry relative="1" as="geometry" />
        </mxCell>
        <mxCell id="jEju3W6k9Q_0HqN9Yv6v-2" value="انتخاب یکی از نسخه ها" style="rounded=1;whiteSpace=wrap;html=1;fillColor=#fff2cc;strokeColor=#d6b656;" parent="1" vertex="1">
          <mxGeometry x="363.12" y="329" width="120" height="60" as="geometry" />
        </mxCell>
        <mxCell id="jEju3W6k9Q_0HqN9Yv6v-3" value="انتخاب گزینه استعلام" style="rounded=1;whiteSpace=wrap;html=1;fillColor=#fff2cc;strokeColor=#d6b656;" parent="1" vertex="1">
          <mxGeometry x="363.12" y="442" width="120" height="60" as="geometry" />
        </mxCell>
        <mxCell id="RYHOe2CSkHWcoygQAZou-2" value="" style="edgeStyle=orthogonalEdgeStyle;rounded=0;orthogonalLoop=1;jettySize=auto;html=1;" parent="1" source="jEju3W6k9Q_0HqN9Yv6v-4" target="RYHOe2CSkHWcoygQAZou-1" edge="1">
          <mxGeometry relative="1" as="geometry" />
        </mxCell>
        <mxCell id="jEju3W6k9Q_0HqN9Yv6v-4" value="انتخاب یک یا چند داروخانه مورد نظر برای استعلام‌گیری" style="rounded=1;whiteSpace=wrap;html=1;fillColor=#fff2cc;strokeColor=#d6b656;" parent="1" vertex="1">
          <mxGeometry x="361" y="555" width="120" height="60" as="geometry" />
        </mxCell>
        <mxCell id="jEju3W6k9Q_0HqN9Yv6v-10" style="edgeStyle=orthogonalEdgeStyle;rounded=0;orthogonalLoop=1;jettySize=auto;html=1;entryX=0.514;entryY=0.044;entryDx=0;entryDy=0;entryPerimeter=0;" parent="1" source="jEju3W6k9Q_0HqN9Yv6v-3" target="jEju3W6k9Q_0HqN9Yv6v-4" edge="1">
          <mxGeometry relative="1" as="geometry" />
        </mxCell>
        <mxCell id="RYHOe2CSkHWcoygQAZou-1" value="ثبت&amp;nbsp; درخواست و انتظار برای پاسخ داروخانه" style="rounded=1;whiteSpace=wrap;html=1;fillColor=#fff2cc;strokeColor=#d6b656;" parent="1" vertex="1">
          <mxGeometry x="361" y="695" width="120" height="60" as="geometry" />
        </mxCell>
        <mxCell id="5VJXVE0ThPsyUYcKVj7Z-1" value="&lt;font color=&quot;#ff2e9d&quot; style=&quot;font-size: 41px;&quot; face=&quot;Tahoma&quot;&gt;پنل بیمار&lt;/font&gt;&lt;font style=&quot;font-size: 41px;&quot; face=&quot;_kxpbe5iIvoVPWevJDPW&quot;&gt;&lt;br&gt;&lt;/font&gt;" style="text;html=1;align=center;verticalAlign=middle;resizable=0;points=[];autosize=1;strokeColor=none;fillColor=none;" vertex="1" parent="1">
          <mxGeometry x="630" y="22" width="164" height="64" as="geometry" />
        </mxCell>
      </root>
    </mxGraphModel>
  </diagram>
  <diagram id="a3zZ5LbOgHyX5Z-fwwBG" name="احراز هویت">
    <mxGraphModel dx="1434" dy="907" grid="0" gridSize="10" guides="1" tooltips="1" connect="1" arrows="1" fold="1" page="1" pageScale="1" pageWidth="850" pageHeight="1100" math="0" shadow="1">
      <root>
        <mxCell id="0" />
        <mxCell id="1" parent="0" />
        <mxCell id="kL8uHqbbSjExB8aNuhgu-1" value="" style="shape=table;startSize=0;container=1;collapsible=0;childLayout=tableLayout;fontSize=16;" parent="1" vertex="1">
          <mxGeometry x="85" y="38" width="676" height="606.041666666667" as="geometry" />
        </mxCell>
        <mxCell id="kL8uHqbbSjExB8aNuhgu-2" value="" style="shape=tableRow;horizontal=0;startSize=0;swimlaneHead=0;swimlaneBody=0;strokeColor=inherit;top=0;left=0;bottom=0;right=0;collapsible=0;dropTarget=0;fillColor=none;points=[[0,0.5],[1,0.5]];portConstraint=eastwest;fontSize=16;" parent="kL8uHqbbSjExB8aNuhgu-1" vertex="1">
          <mxGeometry width="676" height="65" as="geometry" />
        </mxCell>
        <mxCell id="kL8uHqbbSjExB8aNuhgu-3" value="بیمار" style="shape=partialRectangle;html=1;whiteSpace=wrap;connectable=0;strokeColor=inherit;overflow=hidden;fillColor=none;top=0;left=0;bottom=0;right=0;pointerEvents=1;fontSize=16;" parent="kL8uHqbbSjExB8aNuhgu-2" vertex="1">
          <mxGeometry width="226" height="65" as="geometry">
            <mxRectangle width="226" height="65" as="alternateBounds" />
          </mxGeometry>
        </mxCell>
        <mxCell id="kL8uHqbbSjExB8aNuhgu-4" value="پزشک" style="shape=partialRectangle;html=1;whiteSpace=wrap;connectable=0;strokeColor=inherit;overflow=hidden;fillColor=none;top=0;left=0;bottom=0;right=0;pointerEvents=1;fontSize=16;" parent="kL8uHqbbSjExB8aNuhgu-2" vertex="1">
          <mxGeometry x="226" width="224" height="65" as="geometry">
            <mxRectangle width="224" height="65" as="alternateBounds" />
          </mxGeometry>
        </mxCell>
        <mxCell id="kL8uHqbbSjExB8aNuhgu-5" value="بهیار" style="shape=partialRectangle;html=1;whiteSpace=wrap;connectable=0;strokeColor=inherit;overflow=hidden;fillColor=none;top=0;left=0;bottom=0;right=0;pointerEvents=1;fontSize=16;" parent="kL8uHqbbSjExB8aNuhgu-2" vertex="1">
          <mxGeometry x="450" width="226" height="65" as="geometry">
            <mxRectangle width="226" height="65" as="alternateBounds" />
          </mxGeometry>
        </mxCell>
        <mxCell id="kL8uHqbbSjExB8aNuhgu-10" value="" style="shape=tableRow;horizontal=0;startSize=0;swimlaneHead=0;swimlaneBody=0;strokeColor=inherit;top=0;left=0;bottom=0;right=0;collapsible=0;dropTarget=0;fillColor=none;points=[[0,0.5],[1,0.5]];portConstraint=eastwest;fontSize=16;" parent="kL8uHqbbSjExB8aNuhgu-1" vertex="1">
          <mxGeometry y="65" width="676" height="541" as="geometry" />
        </mxCell>
        <mxCell id="kL8uHqbbSjExB8aNuhgu-11" value="" style="shape=partialRectangle;html=1;whiteSpace=wrap;connectable=0;strokeColor=inherit;overflow=hidden;fillColor=none;top=0;left=0;bottom=0;right=0;pointerEvents=1;fontSize=16;" parent="kL8uHqbbSjExB8aNuhgu-10" vertex="1">
          <mxGeometry width="226" height="541" as="geometry">
            <mxRectangle width="226" height="541" as="alternateBounds" />
          </mxGeometry>
        </mxCell>
        <mxCell id="kL8uHqbbSjExB8aNuhgu-12" value="" style="shape=partialRectangle;html=1;whiteSpace=wrap;connectable=0;strokeColor=inherit;overflow=hidden;fillColor=none;top=0;left=0;bottom=0;right=0;pointerEvents=1;fontSize=16;" parent="kL8uHqbbSjExB8aNuhgu-10" vertex="1">
          <mxGeometry x="226" width="224" height="541" as="geometry">
            <mxRectangle width="224" height="541" as="alternateBounds" />
          </mxGeometry>
        </mxCell>
        <mxCell id="kL8uHqbbSjExB8aNuhgu-13" value="" style="shape=partialRectangle;html=1;whiteSpace=wrap;connectable=0;strokeColor=inherit;overflow=hidden;fillColor=none;top=0;left=0;bottom=0;right=0;pointerEvents=1;fontSize=16;" parent="kL8uHqbbSjExB8aNuhgu-10" vertex="1">
          <mxGeometry x="450" width="226" height="541" as="geometry">
            <mxRectangle width="226" height="541" as="alternateBounds" />
          </mxGeometry>
        </mxCell>
        <mxCell id="kL8uHqbbSjExB8aNuhgu-15" style="edgeStyle=orthogonalEdgeStyle;rounded=0;orthogonalLoop=1;jettySize=auto;html=1;entryX=0.5;entryY=0;entryDx=0;entryDy=0;" parent="1" source="kL8uHqbbSjExB8aNuhgu-16" target="kL8uHqbbSjExB8aNuhgu-17" edge="1">
          <mxGeometry relative="1" as="geometry" />
        </mxCell>
        <mxCell id="kL8uHqbbSjExB8aNuhgu-16" value="" style="ellipse;html=1;shape=startState;fillColor=#000000;strokeColor=#ff0000;" parent="1" vertex="1">
          <mxGeometry x="185" y="122" width="30" height="30" as="geometry" />
        </mxCell>
        <mxCell id="kL8uHqbbSjExB8aNuhgu-31" style="edgeStyle=orthogonalEdgeStyle;rounded=0;orthogonalLoop=1;jettySize=auto;html=1;entryX=0.5;entryY=0;entryDx=0;entryDy=0;" parent="1" source="kL8uHqbbSjExB8aNuhgu-17" target="kL8uHqbbSjExB8aNuhgu-27" edge="1">
          <mxGeometry relative="1" as="geometry" />
        </mxCell>
        <mxCell id="kL8uHqbbSjExB8aNuhgu-17" value="انتخاب گزینه احراز هویت در صورت وجود" style="rounded=1;whiteSpace=wrap;html=1;fillColor=#fff2cc;strokeColor=#d6b656;" parent="1" vertex="1">
          <mxGeometry x="140" y="206" width="120" height="60" as="geometry" />
        </mxCell>
        <mxCell id="kL8uHqbbSjExB8aNuhgu-21" style="edgeStyle=orthogonalEdgeStyle;rounded=0;orthogonalLoop=1;jettySize=auto;html=1;entryX=0.5;entryY=0;entryDx=0;entryDy=0;" parent="1" source="kL8uHqbbSjExB8aNuhgu-22" target="kL8uHqbbSjExB8aNuhgu-23" edge="1">
          <mxGeometry relative="1" as="geometry" />
        </mxCell>
        <mxCell id="kL8uHqbbSjExB8aNuhgu-22" value="" style="ellipse;html=1;shape=startState;fillColor=#000000;strokeColor=#ff0000;" parent="1" vertex="1">
          <mxGeometry x="413" y="122" width="30" height="30" as="geometry" />
        </mxCell>
        <mxCell id="kL8uHqbbSjExB8aNuhgu-33" style="edgeStyle=orthogonalEdgeStyle;rounded=0;orthogonalLoop=1;jettySize=auto;html=1;entryX=0.5;entryY=0;entryDx=0;entryDy=0;" parent="1" source="kL8uHqbbSjExB8aNuhgu-23" target="kL8uHqbbSjExB8aNuhgu-28" edge="1">
          <mxGeometry relative="1" as="geometry" />
        </mxCell>
        <mxCell id="kL8uHqbbSjExB8aNuhgu-23" value="انتخاب گزینه احراز هویت در صورت وجود" style="rounded=1;whiteSpace=wrap;html=1;fillColor=#fff2cc;strokeColor=#d6b656;" parent="1" vertex="1">
          <mxGeometry x="368" y="206" width="120" height="60" as="geometry" />
        </mxCell>
        <mxCell id="kL8uHqbbSjExB8aNuhgu-24" style="edgeStyle=orthogonalEdgeStyle;rounded=0;orthogonalLoop=1;jettySize=auto;html=1;entryX=0.5;entryY=0;entryDx=0;entryDy=0;" parent="1" source="kL8uHqbbSjExB8aNuhgu-25" target="kL8uHqbbSjExB8aNuhgu-26" edge="1">
          <mxGeometry relative="1" as="geometry" />
        </mxCell>
        <mxCell id="kL8uHqbbSjExB8aNuhgu-25" value="" style="ellipse;html=1;shape=startState;fillColor=#000000;strokeColor=#ff0000;" parent="1" vertex="1">
          <mxGeometry x="635" y="122" width="30" height="30" as="geometry" />
        </mxCell>
        <mxCell id="kL8uHqbbSjExB8aNuhgu-34" style="edgeStyle=orthogonalEdgeStyle;rounded=0;orthogonalLoop=1;jettySize=auto;html=1;entryX=0.5;entryY=0;entryDx=0;entryDy=0;" parent="1" source="kL8uHqbbSjExB8aNuhgu-26" target="kL8uHqbbSjExB8aNuhgu-30" edge="1">
          <mxGeometry relative="1" as="geometry" />
        </mxCell>
        <mxCell id="kL8uHqbbSjExB8aNuhgu-26" value="انتخاب گزینه احراز هویت در صورت وجود" style="rounded=1;whiteSpace=wrap;html=1;fillColor=#fff2cc;strokeColor=#d6b656;" parent="1" vertex="1">
          <mxGeometry x="590" y="206" width="120" height="60" as="geometry" />
        </mxCell>
        <mxCell id="kL8uHqbbSjExB8aNuhgu-32" style="edgeStyle=orthogonalEdgeStyle;rounded=0;orthogonalLoop=1;jettySize=auto;html=1;entryX=0.5;entryY=0;entryDx=0;entryDy=0;" parent="1" source="kL8uHqbbSjExB8aNuhgu-27" target="kL8uHqbbSjExB8aNuhgu-29" edge="1">
          <mxGeometry relative="1" as="geometry" />
        </mxCell>
        <mxCell id="kL8uHqbbSjExB8aNuhgu-27" value="آپلود پشت کارت‌ملی" style="rounded=1;whiteSpace=wrap;html=1;fillColor=#fff2cc;strokeColor=#d6b656;" parent="1" vertex="1">
          <mxGeometry x="140" y="320" width="120" height="60" as="geometry" />
        </mxCell>
        <mxCell id="kL8uHqbbSjExB8aNuhgu-38" style="edgeStyle=orthogonalEdgeStyle;rounded=0;orthogonalLoop=1;jettySize=auto;html=1;entryX=0.5;entryY=0;entryDx=0;entryDy=0;" parent="1" source="kL8uHqbbSjExB8aNuhgu-28" target="kL8uHqbbSjExB8aNuhgu-36" edge="1">
          <mxGeometry relative="1" as="geometry" />
        </mxCell>
        <mxCell id="kL8uHqbbSjExB8aNuhgu-28" value="آپلود گواهی نظام پزشکی" style="rounded=1;whiteSpace=wrap;html=1;fillColor=#fff2cc;strokeColor=#d6b656;" parent="1" vertex="1">
          <mxGeometry x="368" y="320" width="120" height="60" as="geometry" />
        </mxCell>
        <mxCell id="pJIWiUqTw_LXxkeThAIg-1" value="" style="edgeStyle=orthogonalEdgeStyle;rounded=0;orthogonalLoop=1;jettySize=auto;html=1;" parent="1" source="kL8uHqbbSjExB8aNuhgu-29" target="kL8uHqbbSjExB8aNuhgu-35" edge="1">
          <mxGeometry relative="1" as="geometry" />
        </mxCell>
        <mxCell id="kL8uHqbbSjExB8aNuhgu-29" value="آپلود روی کارت‌ملی" style="rounded=1;whiteSpace=wrap;html=1;fillColor=#fff2cc;strokeColor=#d6b656;" parent="1" vertex="1">
          <mxGeometry x="140" y="434" width="120" height="60" as="geometry" />
        </mxCell>
        <mxCell id="kL8uHqbbSjExB8aNuhgu-39" style="edgeStyle=orthogonalEdgeStyle;rounded=0;orthogonalLoop=1;jettySize=auto;html=1;entryX=0.5;entryY=0;entryDx=0;entryDy=0;" parent="1" source="kL8uHqbbSjExB8aNuhgu-30" target="kL8uHqbbSjExB8aNuhgu-37" edge="1">
          <mxGeometry relative="1" as="geometry" />
        </mxCell>
        <mxCell id="kL8uHqbbSjExB8aNuhgu-30" value="آپلود مجوز داده شده از سوی مجموعه روان‌سبز" style="rounded=1;whiteSpace=wrap;html=1;fillColor=#fff2cc;strokeColor=#d6b656;" parent="1" vertex="1">
          <mxGeometry x="590" y="320" width="120" height="60" as="geometry" />
        </mxCell>
        <mxCell id="kL8uHqbbSjExB8aNuhgu-35" value="ارسال اطلاعات (انتظار برای ثبت)" style="rounded=1;whiteSpace=wrap;html=1;fillColor=#fff2cc;strokeColor=#d6b656;" parent="1" vertex="1">
          <mxGeometry x="140" y="548" width="120" height="60" as="geometry" />
        </mxCell>
        <mxCell id="kL8uHqbbSjExB8aNuhgu-36" value="ارسال اطلاعات (انتظار برای ثبت)" style="rounded=1;whiteSpace=wrap;html=1;fillColor=#fff2cc;strokeColor=#d6b656;" parent="1" vertex="1">
          <mxGeometry x="368" y="434" width="120" height="60" as="geometry" />
        </mxCell>
        <mxCell id="kL8uHqbbSjExB8aNuhgu-37" value="ارسال اطلاعات (انتظار برای ثبت)" style="rounded=1;whiteSpace=wrap;html=1;fillColor=#fff2cc;strokeColor=#d6b656;" parent="1" vertex="1">
          <mxGeometry x="590" y="434" width="120" height="60" as="geometry" />
        </mxCell>
      </root>
    </mxGraphModel>
  </diagram>
  <diagram id="v59sDsgjJgZPGbm1hc7H" name="مشاهده بیماران‌ومشاهده گزارشات">
    <mxGraphModel dx="1434" dy="907" grid="0" gridSize="10" guides="1" tooltips="1" connect="1" arrows="1" fold="1" page="1" pageScale="1" pageWidth="850" pageHeight="1100" math="0" shadow="1">
      <root>
        <mxCell id="0" />
        <mxCell id="1" parent="0" />
        <mxCell id="41zMJpP6EPs4QqZYBTX4-1" style="edgeStyle=orthogonalEdgeStyle;rounded=0;orthogonalLoop=1;jettySize=auto;html=1;entryX=0.5;entryY=0;entryDx=0;entryDy=0;" parent="1" source="41zMJpP6EPs4QqZYBTX4-2" target="41zMJpP6EPs4QqZYBTX4-4" edge="1">
          <mxGeometry relative="1" as="geometry" />
        </mxCell>
        <mxCell id="41zMJpP6EPs4QqZYBTX4-2" value="" style="ellipse;html=1;shape=startState;fillColor=#000000;strokeColor=#ff0000;" parent="1" vertex="1">
          <mxGeometry x="408.12" y="18" width="30" height="30" as="geometry" />
        </mxCell>
        <mxCell id="41zMJpP6EPs4QqZYBTX4-3" style="edgeStyle=orthogonalEdgeStyle;rounded=0;orthogonalLoop=1;jettySize=auto;html=1;entryX=0.5;entryY=0;entryDx=0;entryDy=0;" parent="1" source="41zMJpP6EPs4QqZYBTX4-4" target="41zMJpP6EPs4QqZYBTX4-6" edge="1">
          <mxGeometry relative="1" as="geometry" />
        </mxCell>
        <mxCell id="41zMJpP6EPs4QqZYBTX4-4" value="انتخاب گزینه بیماران" style="rounded=1;whiteSpace=wrap;html=1;fillColor=#fff2cc;strokeColor=#d6b656;" parent="1" vertex="1">
          <mxGeometry x="363.12" y="102" width="120" height="60" as="geometry" />
        </mxCell>
        <mxCell id="41zMJpP6EPs4QqZYBTX4-5" style="edgeStyle=orthogonalEdgeStyle;rounded=0;orthogonalLoop=1;jettySize=auto;html=1;entryX=0.5;entryY=0;entryDx=0;entryDy=0;" parent="1" source="41zMJpP6EPs4QqZYBTX4-6" target="41zMJpP6EPs4QqZYBTX4-8" edge="1">
          <mxGeometry relative="1" as="geometry" />
        </mxCell>
        <mxCell id="41zMJpP6EPs4QqZYBTX4-6" value="مشاهده بیمارانی که تابحال توسط او ویزیت شده‌اند" style="rounded=1;whiteSpace=wrap;html=1;fillColor=#fff2cc;strokeColor=#d6b656;" parent="1" vertex="1">
          <mxGeometry x="363.12" y="216" width="120" height="60" as="geometry" />
        </mxCell>
        <mxCell id="41zMJpP6EPs4QqZYBTX4-7" style="edgeStyle=orthogonalEdgeStyle;rounded=0;orthogonalLoop=1;jettySize=auto;html=1;entryX=0.5;entryY=0;entryDx=0;entryDy=0;" parent="1" source="41zMJpP6EPs4QqZYBTX4-8" target="41zMJpP6EPs4QqZYBTX4-10" edge="1">
          <mxGeometry relative="1" as="geometry" />
        </mxCell>
        <mxCell id="41zMJpP6EPs4QqZYBTX4-8" value="انتخاب بیمار" style="rounded=1;whiteSpace=wrap;html=1;fillColor=#fff2cc;strokeColor=#d6b656;" parent="1" vertex="1">
          <mxGeometry x="363.12" y="330" width="120" height="60" as="geometry" />
        </mxCell>
        <mxCell id="41zMJpP6EPs4QqZYBTX4-9" style="edgeStyle=orthogonalEdgeStyle;rounded=0;orthogonalLoop=1;jettySize=auto;html=1;entryX=0.5;entryY=0;entryDx=0;entryDy=0;" parent="1" source="41zMJpP6EPs4QqZYBTX4-10" target="41zMJpP6EPs4QqZYBTX4-12" edge="1">
          <mxGeometry relative="1" as="geometry" />
        </mxCell>
        <mxCell id="41zMJpP6EPs4QqZYBTX4-10" value="مشاهده لیست‌ نوبت‌ها&amp;nbsp;" style="rounded=1;whiteSpace=wrap;html=1;fillColor=#fff2cc;strokeColor=#d6b656;" parent="1" vertex="1">
          <mxGeometry x="363.12" y="444" width="120" height="60" as="geometry" />
        </mxCell>
        <mxCell id="41zMJpP6EPs4QqZYBTX4-12" value="مشاهده نسخه و اطلاعات بیمار از جمله گزارشات بهیار" style="rounded=1;whiteSpace=wrap;html=1;fillColor=#fff2cc;strokeColor=#d6b656;" parent="1" vertex="1">
          <mxGeometry x="363.12" y="558" width="120" height="60" as="geometry" />
        </mxCell>
        <mxCell id="SEmBY2ckCsACXLVz9-JT-1" value="&lt;font style=&quot;font-size: 41px;&quot; face=&quot;Tahoma&quot; color=&quot;#ff2e9d&quot;&gt;پنل پزشک&lt;/font&gt;&lt;font style=&quot;font-size: 41px;&quot; face=&quot;_kxpbe5iIvoVPWevJDPW&quot;&gt;&lt;br&gt;&lt;/font&gt;" style="text;html=1;align=center;verticalAlign=middle;resizable=0;points=[];autosize=1;strokeColor=none;fillColor=none;" vertex="1" parent="1">
          <mxGeometry x="632" y="24" width="160" height="61" as="geometry" />
        </mxCell>
      </root>
    </mxGraphModel>
  </diagram>
  <diagram id="-ymNmGknY1GtbZw8oHHY" name="ویزیت بیمار">
    <mxGraphModel dx="1434" dy="907" grid="0" gridSize="10" guides="1" tooltips="1" connect="1" arrows="1" fold="1" page="1" pageScale="1" pageWidth="850" pageHeight="1100" math="0" shadow="0">
      <root>
        <mxCell id="0" />
        <mxCell id="1" parent="0" />
        <mxCell id="iKYJ4wEbvvt_CDGnGMS3-1" style="edgeStyle=orthogonalEdgeStyle;rounded=0;orthogonalLoop=1;jettySize=auto;html=1;entryX=0.5;entryY=0;entryDx=0;entryDy=0;" parent="1" source="iKYJ4wEbvvt_CDGnGMS3-2" target="iKYJ4wEbvvt_CDGnGMS3-3" edge="1">
          <mxGeometry relative="1" as="geometry" />
        </mxCell>
        <mxCell id="iKYJ4wEbvvt_CDGnGMS3-2" value="" style="ellipse;html=1;shape=startState;fillColor=#000000;strokeColor=#ff0000;" parent="1" vertex="1">
          <mxGeometry x="408.12" y="18" width="30" height="30" as="geometry" />
        </mxCell>
        <mxCell id="jpBTavrYxMbSmwcCL-Kd-2" style="edgeStyle=orthogonalEdgeStyle;rounded=0;orthogonalLoop=1;jettySize=auto;html=1;" parent="1" source="iKYJ4wEbvvt_CDGnGMS3-3" target="jpBTavrYxMbSmwcCL-Kd-1" edge="1">
          <mxGeometry relative="1" as="geometry" />
        </mxCell>
        <mxCell id="iKYJ4wEbvvt_CDGnGMS3-3" value="انتخاب گزینه معالجه&amp;nbsp;" style="rounded=1;whiteSpace=wrap;html=1;fillColor=#fff2cc;strokeColor=#d6b656;" parent="1" vertex="1">
          <mxGeometry x="363.12" y="102" width="120" height="60" as="geometry" />
        </mxCell>
        <mxCell id="jpBTavrYxMbSmwcCL-Kd-1" value="ورود به اتاق مجازی ویزیت" style="rounded=1;whiteSpace=wrap;html=1;fillColor=#fff2cc;strokeColor=#d6b656;" parent="1" vertex="1">
          <mxGeometry x="363.12" y="216" width="120" height="60" as="geometry" />
        </mxCell>
        <mxCell id="xiHdcCSP6FbuAoLd8yhL-1" value="&lt;font style=&quot;font-size: 41px;&quot; face=&quot;Tahoma&quot; color=&quot;#ff2e9d&quot;&gt;پنل پزشک&lt;/font&gt;&lt;font style=&quot;font-size: 41px;&quot; face=&quot;_kxpbe5iIvoVPWevJDPW&quot;&gt;&lt;br&gt;&lt;/font&gt;" style="text;html=1;align=center;verticalAlign=middle;resizable=0;points=[];autosize=1;strokeColor=none;fillColor=none;" vertex="1" parent="1">
          <mxGeometry x="632" y="24" width="160" height="61" as="geometry" />
        </mxCell>
      </root>
    </mxGraphModel>
  </diagram>
  <diagram id="3KQFDjnTUseXHIDgtZ4h" name="ثبت درخواست بهیار">
    <mxGraphModel dx="1434" dy="907" grid="0" gridSize="10" guides="1" tooltips="1" connect="1" arrows="1" fold="1" page="1" pageScale="1" pageWidth="850" pageHeight="1100" math="0" shadow="0">
      <root>
        <mxCell id="0" />
        <mxCell id="1" parent="0" />
        <mxCell id="58nMoKgWmDX21kcRhxYN-1" style="edgeStyle=orthogonalEdgeStyle;rounded=0;orthogonalLoop=1;jettySize=auto;html=1;entryX=0.5;entryY=0;entryDx=0;entryDy=0;" parent="1" source="58nMoKgWmDX21kcRhxYN-2" target="58nMoKgWmDX21kcRhxYN-3" edge="1">
          <mxGeometry relative="1" as="geometry" />
        </mxCell>
        <mxCell id="58nMoKgWmDX21kcRhxYN-2" value="" style="ellipse;html=1;shape=startState;fillColor=#000000;strokeColor=#ff0000;" parent="1" vertex="1">
          <mxGeometry x="408.12" y="18" width="30" height="30" as="geometry" />
        </mxCell>
        <mxCell id="WzfmMW1xO7xWY0SpS_B6-4" style="edgeStyle=orthogonalEdgeStyle;rounded=0;orthogonalLoop=1;jettySize=auto;html=1;entryX=0.5;entryY=0;entryDx=0;entryDy=0;" parent="1" source="58nMoKgWmDX21kcRhxYN-3" target="t8S_f1dNRp9nqtWYYT-q-1" edge="1">
          <mxGeometry relative="1" as="geometry" />
        </mxCell>
        <mxCell id="58nMoKgWmDX21kcRhxYN-3" value="انتخاب گزینه بهیاران" style="rounded=1;whiteSpace=wrap;html=1;fillColor=#fff2cc;strokeColor=#d6b656;" parent="1" vertex="1">
          <mxGeometry x="363.12" y="102" width="120" height="60" as="geometry" />
        </mxCell>
        <mxCell id="WzfmMW1xO7xWY0SpS_B6-5" style="edgeStyle=orthogonalEdgeStyle;rounded=0;orthogonalLoop=1;jettySize=auto;html=1;entryX=0.5;entryY=0;entryDx=0;entryDy=0;" parent="1" source="t8S_f1dNRp9nqtWYYT-q-1" target="t8S_f1dNRp9nqtWYYT-q-2" edge="1">
          <mxGeometry relative="1" as="geometry" />
        </mxCell>
        <mxCell id="t8S_f1dNRp9nqtWYYT-q-1" value="انتخاب بهیار" style="rounded=1;whiteSpace=wrap;html=1;fillColor=#fff2cc;strokeColor=#d6b656;" parent="1" vertex="1">
          <mxGeometry x="363.12" y="216" width="120" height="60" as="geometry" />
        </mxCell>
        <mxCell id="WzfmMW1xO7xWY0SpS_B6-6" style="edgeStyle=orthogonalEdgeStyle;rounded=0;orthogonalLoop=1;jettySize=auto;html=1;entryX=0.5;entryY=0;entryDx=0;entryDy=0;" parent="1" source="t8S_f1dNRp9nqtWYYT-q-2" target="WzfmMW1xO7xWY0SpS_B6-1" edge="1">
          <mxGeometry relative="1" as="geometry" />
        </mxCell>
        <mxCell id="t8S_f1dNRp9nqtWYYT-q-2" value="مشاهده رزومه بهیار" style="rounded=1;whiteSpace=wrap;html=1;fillColor=#fff2cc;strokeColor=#d6b656;" parent="1" vertex="1">
          <mxGeometry x="363.12" y="330" width="120" height="60" as="geometry" />
        </mxCell>
        <mxCell id="WzfmMW1xO7xWY0SpS_B6-7" style="edgeStyle=orthogonalEdgeStyle;rounded=0;orthogonalLoop=1;jettySize=auto;html=1;entryX=0.5;entryY=0;entryDx=0;entryDy=0;" parent="1" source="WzfmMW1xO7xWY0SpS_B6-1" target="WzfmMW1xO7xWY0SpS_B6-2" edge="1">
          <mxGeometry relative="1" as="geometry" />
        </mxCell>
        <mxCell id="WzfmMW1xO7xWY0SpS_B6-9" value="قبول" style="edgeLabel;html=1;align=center;verticalAlign=middle;resizable=0;points=[];" parent="WzfmMW1xO7xWY0SpS_B6-7" vertex="1" connectable="0">
          <mxGeometry x="0.2593" y="3" relative="1" as="geometry">
            <mxPoint as="offset" />
          </mxGeometry>
        </mxCell>
        <mxCell id="WzfmMW1xO7xWY0SpS_B6-1" value="بررسی بهیار" style="rhombus;whiteSpace=wrap;html=1;fillColor=#dae8fc;strokeColor=#6c8ebf;" parent="1" vertex="1">
          <mxGeometry x="338.62" y="444" width="169" height="80" as="geometry" />
        </mxCell>
        <mxCell id="WzfmMW1xO7xWY0SpS_B6-2" value="ثبت درخواست" style="rounded=1;whiteSpace=wrap;html=1;fillColor=#fff2cc;strokeColor=#d6b656;" parent="1" vertex="1">
          <mxGeometry x="363.12" y="578" width="120" height="60" as="geometry" />
        </mxCell>
        <mxCell id="WzfmMW1xO7xWY0SpS_B6-3" style="edgeStyle=orthogonalEdgeStyle;rounded=0;orthogonalLoop=1;jettySize=auto;html=1;entryX=0.999;entryY=0.383;entryDx=0;entryDy=0;entryPerimeter=0;" parent="1" source="WzfmMW1xO7xWY0SpS_B6-1" target="t8S_f1dNRp9nqtWYYT-q-1" edge="1">
          <mxGeometry relative="1" as="geometry">
            <Array as="points">
              <mxPoint x="535" y="484" />
              <mxPoint x="535" y="239" />
            </Array>
          </mxGeometry>
        </mxCell>
        <mxCell id="WzfmMW1xO7xWY0SpS_B6-8" value="رد" style="edgeLabel;html=1;align=center;verticalAlign=middle;resizable=0;points=[];" parent="WzfmMW1xO7xWY0SpS_B6-3" vertex="1" connectable="0">
          <mxGeometry x="-0.079" y="-3" relative="1" as="geometry">
            <mxPoint as="offset" />
          </mxGeometry>
        </mxCell>
        <mxCell id="-599gnvnlt-AFmnZsvA_-1" value="&lt;font style=&quot;font-size: 41px;&quot; face=&quot;Tahoma&quot; color=&quot;#ff2e9d&quot;&gt;پنل پزشک&lt;/font&gt;&lt;font style=&quot;font-size: 41px;&quot; face=&quot;_kxpbe5iIvoVPWevJDPW&quot;&gt;&lt;br&gt;&lt;/font&gt;" style="text;html=1;align=center;verticalAlign=middle;resizable=0;points=[];autosize=1;strokeColor=none;fillColor=none;" vertex="1" parent="1">
          <mxGeometry x="632" y="24" width="160" height="61" as="geometry" />
        </mxCell>
      </root>
    </mxGraphModel>
  </diagram>
  <diagram id="Rc_PUp-oyMHTpb4cvOzX" name="نوشتن نسخه">
    <mxGraphModel dx="1434" dy="907" grid="0" gridSize="10" guides="1" tooltips="1" connect="1" arrows="1" fold="1" page="1" pageScale="1" pageWidth="850" pageHeight="1100" math="0" shadow="0">
      <root>
        <mxCell id="0" />
        <mxCell id="1" parent="0" />
        <mxCell id="y9xHX_pDdLY75_kmCvpo-1" style="edgeStyle=orthogonalEdgeStyle;rounded=0;orthogonalLoop=1;jettySize=auto;html=1;entryX=0.5;entryY=0;entryDx=0;entryDy=0;" parent="1" source="y9xHX_pDdLY75_kmCvpo-2" target="y9xHX_pDdLY75_kmCvpo-4" edge="1">
          <mxGeometry relative="1" as="geometry" />
        </mxCell>
        <mxCell id="y9xHX_pDdLY75_kmCvpo-2" value="" style="ellipse;html=1;shape=startState;fillColor=#000000;strokeColor=#ff0000;" parent="1" vertex="1">
          <mxGeometry x="408.12" y="18" width="30" height="30" as="geometry" />
        </mxCell>
        <mxCell id="y9xHX_pDdLY75_kmCvpo-3" style="edgeStyle=orthogonalEdgeStyle;rounded=0;orthogonalLoop=1;jettySize=auto;html=1;entryX=0.5;entryY=0;entryDx=0;entryDy=0;" parent="1" source="y9xHX_pDdLY75_kmCvpo-4" target="y9xHX_pDdLY75_kmCvpo-6" edge="1">
          <mxGeometry relative="1" as="geometry" />
        </mxCell>
        <mxCell id="y9xHX_pDdLY75_kmCvpo-4" value="انتخاب گزینه بیماران" style="rounded=1;whiteSpace=wrap;html=1;fillColor=#fff2cc;strokeColor=#d6b656;" parent="1" vertex="1">
          <mxGeometry x="363.12" y="102" width="120" height="60" as="geometry" />
        </mxCell>
        <mxCell id="y9xHX_pDdLY75_kmCvpo-5" style="edgeStyle=orthogonalEdgeStyle;rounded=0;orthogonalLoop=1;jettySize=auto;html=1;entryX=0.5;entryY=0;entryDx=0;entryDy=0;" parent="1" source="y9xHX_pDdLY75_kmCvpo-6" target="y9xHX_pDdLY75_kmCvpo-8" edge="1">
          <mxGeometry relative="1" as="geometry" />
        </mxCell>
        <mxCell id="y9xHX_pDdLY75_kmCvpo-6" value="مشاهده بیمارانی که تابحال توسط او ویزیت شده‌اند" style="rounded=1;whiteSpace=wrap;html=1;fillColor=#fff2cc;strokeColor=#d6b656;" parent="1" vertex="1">
          <mxGeometry x="363.12" y="216" width="120" height="60" as="geometry" />
        </mxCell>
        <mxCell id="iPYfl4DVJC20aiQWn8jJ-6" style="edgeStyle=orthogonalEdgeStyle;rounded=0;orthogonalLoop=1;jettySize=auto;html=1;entryX=0.5;entryY=0;entryDx=0;entryDy=0;" parent="1" source="y9xHX_pDdLY75_kmCvpo-8" target="iPYfl4DVJC20aiQWn8jJ-1" edge="1">
          <mxGeometry relative="1" as="geometry" />
        </mxCell>
        <mxCell id="y9xHX_pDdLY75_kmCvpo-8" value="انتخاب بیمار" style="rounded=1;whiteSpace=wrap;html=1;fillColor=#fff2cc;strokeColor=#d6b656;" parent="1" vertex="1">
          <mxGeometry x="363.12" y="330" width="120" height="60" as="geometry" />
        </mxCell>
        <mxCell id="iPYfl4DVJC20aiQWn8jJ-7" style="edgeStyle=orthogonalEdgeStyle;rounded=0;orthogonalLoop=1;jettySize=auto;html=1;entryX=0.5;entryY=0;entryDx=0;entryDy=0;" parent="1" source="iPYfl4DVJC20aiQWn8jJ-1" target="iPYfl4DVJC20aiQWn8jJ-4" edge="1">
          <mxGeometry relative="1" as="geometry" />
        </mxCell>
        <mxCell id="iPYfl4DVJC20aiQWn8jJ-1" value="مشاهده لیست‌ نوبت‌ها" style="rounded=1;whiteSpace=wrap;html=1;fillColor=#fff2cc;strokeColor=#d6b656;" parent="1" vertex="1">
          <mxGeometry x="363.12" y="444" width="120" height="60" as="geometry" />
        </mxCell>
        <mxCell id="iPYfl4DVJC20aiQWn8jJ-3" style="edgeStyle=orthogonalEdgeStyle;rounded=0;orthogonalLoop=1;jettySize=auto;html=1;entryX=0.5;entryY=0;entryDx=0;entryDy=0;" parent="1" source="iPYfl4DVJC20aiQWn8jJ-4" target="iPYfl4DVJC20aiQWn8jJ-5" edge="1">
          <mxGeometry relative="1" as="geometry" />
        </mxCell>
        <mxCell id="iPYfl4DVJC20aiQWn8jJ-4" value="انتخاب نوبت مورد نظر" style="rounded=1;whiteSpace=wrap;html=1;fillColor=#fff2cc;strokeColor=#d6b656;" parent="1" vertex="1">
          <mxGeometry x="363.12" y="558" width="120" height="60" as="geometry" />
        </mxCell>
        <mxCell id="5tU7qJ3Dh64uan8ClLYf-2" style="edgeStyle=orthogonalEdgeStyle;rounded=0;orthogonalLoop=1;jettySize=auto;html=1;" parent="1" source="iPYfl4DVJC20aiQWn8jJ-5" target="5tU7qJ3Dh64uan8ClLYf-1" edge="1">
          <mxGeometry relative="1" as="geometry" />
        </mxCell>
        <mxCell id="iPYfl4DVJC20aiQWn8jJ-5" value="مشاهده نسخه و اطلاعات بیمار از جمله گزارشات بهیار" style="rounded=1;whiteSpace=wrap;html=1;fillColor=#fff2cc;strokeColor=#d6b656;" parent="1" vertex="1">
          <mxGeometry x="363.12" y="661" width="120" height="60" as="geometry" />
        </mxCell>
        <mxCell id="5tU7qJ3Dh64uan8ClLYf-1" value="نوشتن نسخه" style="rounded=1;whiteSpace=wrap;html=1;fillColor=#fff2cc;strokeColor=#d6b656;" parent="1" vertex="1">
          <mxGeometry x="363.12" y="764" width="120" height="60" as="geometry" />
        </mxCell>
        <mxCell id="8meJB_8EhE-Mi3121kdR-1" value="&lt;font style=&quot;font-size: 41px;&quot; face=&quot;Tahoma&quot; color=&quot;#ff2e9d&quot;&gt;پنل پزشک&lt;/font&gt;&lt;font style=&quot;font-size: 41px;&quot; face=&quot;_kxpbe5iIvoVPWevJDPW&quot;&gt;&lt;br&gt;&lt;/font&gt;" style="text;html=1;align=center;verticalAlign=middle;resizable=0;points=[];autosize=1;strokeColor=none;fillColor=none;" vertex="1" parent="1">
          <mxGeometry x="632" y="24" width="160" height="61" as="geometry" />
        </mxCell>
      </root>
    </mxGraphModel>
  </diagram>
  <diagram id="P7kBUxeHfjEHdrvsK1jq" name="چک‌کردن بیمار(بهیار)">
    <mxGraphModel dx="1434" dy="907" grid="0" gridSize="10" guides="1" tooltips="1" connect="1" arrows="1" fold="1" page="1" pageScale="1" pageWidth="850" pageHeight="1100" math="0" shadow="0">
      <root>
        <mxCell id="0" />
        <mxCell id="1" parent="0" />
        <mxCell id="NIz1mHVnNi8Wx4ghglP7-1" style="edgeStyle=orthogonalEdgeStyle;rounded=0;orthogonalLoop=1;jettySize=auto;html=1;entryX=0.5;entryY=0;entryDx=0;entryDy=0;" parent="1" source="NIz1mHVnNi8Wx4ghglP7-2" target="NIz1mHVnNi8Wx4ghglP7-3" edge="1">
          <mxGeometry relative="1" as="geometry" />
        </mxCell>
        <mxCell id="NIz1mHVnNi8Wx4ghglP7-2" value="" style="ellipse;html=1;shape=startState;fillColor=#000000;strokeColor=#ff0000;" parent="1" vertex="1">
          <mxGeometry x="398.12" y="20" width="30" height="30" as="geometry" />
        </mxCell>
        <mxCell id="GOkNlYeoqOg5Ytxv0sTQ-5" style="edgeStyle=orthogonalEdgeStyle;rounded=0;orthogonalLoop=1;jettySize=auto;html=1;entryX=0.5;entryY=0;entryDx=0;entryDy=0;" parent="1" source="NIz1mHVnNi8Wx4ghglP7-3" target="GOkNlYeoqOg5Ytxv0sTQ-1" edge="1">
          <mxGeometry relative="1" as="geometry" />
        </mxCell>
        <mxCell id="NIz1mHVnNi8Wx4ghglP7-3" value="انتخاب گزینه بیماران" style="rounded=1;whiteSpace=wrap;html=1;fillColor=#fff2cc;strokeColor=#d6b656;" parent="1" vertex="1">
          <mxGeometry x="353.12" y="97" width="120" height="60" as="geometry" />
        </mxCell>
        <mxCell id="GOkNlYeoqOg5Ytxv0sTQ-6" style="edgeStyle=orthogonalEdgeStyle;rounded=0;orthogonalLoop=1;jettySize=auto;html=1;entryX=0.5;entryY=0;entryDx=0;entryDy=0;" parent="1" source="GOkNlYeoqOg5Ytxv0sTQ-1" target="GOkNlYeoqOg5Ytxv0sTQ-2" edge="1">
          <mxGeometry relative="1" as="geometry" />
        </mxCell>
        <mxCell id="GOkNlYeoqOg5Ytxv0sTQ-1" value="انتخاب بیمار مورد نظر" style="rounded=1;whiteSpace=wrap;html=1;fillColor=#fff2cc;strokeColor=#d6b656;" parent="1" vertex="1">
          <mxGeometry x="353.12" y="204" width="120" height="60" as="geometry" />
        </mxCell>
        <mxCell id="GOkNlYeoqOg5Ytxv0sTQ-7" style="edgeStyle=orthogonalEdgeStyle;rounded=0;orthogonalLoop=1;jettySize=auto;html=1;entryX=0.5;entryY=0;entryDx=0;entryDy=0;" parent="1" source="GOkNlYeoqOg5Ytxv0sTQ-2" target="GOkNlYeoqOg5Ytxv0sTQ-3" edge="1">
          <mxGeometry relative="1" as="geometry" />
        </mxCell>
        <mxCell id="GOkNlYeoqOg5Ytxv0sTQ-2" value="انتخاب نوبت مورد نظر" style="rounded=1;whiteSpace=wrap;html=1;fillColor=#fff2cc;strokeColor=#d6b656;" parent="1" vertex="1">
          <mxGeometry x="353.12" y="311" width="120" height="60" as="geometry" />
        </mxCell>
        <mxCell id="GOkNlYeoqOg5Ytxv0sTQ-8" style="edgeStyle=orthogonalEdgeStyle;rounded=0;orthogonalLoop=1;jettySize=auto;html=1;entryX=0.5;entryY=0;entryDx=0;entryDy=0;" parent="1" source="GOkNlYeoqOg5Ytxv0sTQ-3" target="GOkNlYeoqOg5Ytxv0sTQ-4" edge="1">
          <mxGeometry relative="1" as="geometry" />
        </mxCell>
        <mxCell id="GOkNlYeoqOg5Ytxv0sTQ-3" value="تماس با توجه به اطلاعات ثبت شده" style="rounded=1;whiteSpace=wrap;html=1;fillColor=#fff2cc;strokeColor=#d6b656;" parent="1" vertex="1">
          <mxGeometry x="353.12" y="418" width="120" height="60" as="geometry" />
        </mxCell>
        <mxCell id="EfdUAUnSZdAMddTPoPE0-2" value="" style="edgeStyle=orthogonalEdgeStyle;rounded=0;orthogonalLoop=1;jettySize=auto;html=1;" parent="1" source="GOkNlYeoqOg5Ytxv0sTQ-4" target="EfdUAUnSZdAMddTPoPE0-1" edge="1">
          <mxGeometry relative="1" as="geometry" />
        </mxCell>
        <mxCell id="GOkNlYeoqOg5Ytxv0sTQ-4" value="نوشتن گزارش نوبت انتخاب شده" style="rounded=1;whiteSpace=wrap;html=1;fillColor=#fff2cc;strokeColor=#d6b656;" parent="1" vertex="1">
          <mxGeometry x="353.12" y="525" width="120" height="60" as="geometry" />
        </mxCell>
        <mxCell id="EfdUAUnSZdAMddTPoPE0-1" value="ثبت اطلاعات" style="rounded=1;whiteSpace=wrap;html=1;fillColor=#fff2cc;strokeColor=#d6b656;" parent="1" vertex="1">
          <mxGeometry x="353.12" y="665" width="120" height="60" as="geometry" />
        </mxCell>
        <mxCell id="SzVyHWXBArorraRFvjbO-1" value="&lt;font style=&quot;font-size: 41px;&quot; face=&quot;Tahoma&quot; color=&quot;#ff2e9d&quot;&gt;پنل بهیار&lt;/font&gt;&lt;font style=&quot;font-size: 41px;&quot; face=&quot;_kxpbe5iIvoVPWevJDPW&quot;&gt;&lt;br&gt;&lt;/font&gt;" style="text;html=1;align=center;verticalAlign=middle;resizable=0;points=[];autosize=1;strokeColor=none;fillColor=none;" vertex="1" parent="1">
          <mxGeometry x="645" y="24" width="135" height="61" as="geometry" />
        </mxCell>
      </root>
    </mxGraphModel>
  </diagram>
  <diagram id="F4X_OHY7VhIX1MNC7NkL" name="چک کردن درخواست‌ها">
    <mxGraphModel dx="1687" dy="931" grid="0" gridSize="10" guides="1" tooltips="1" connect="1" arrows="1" fold="1" page="1" pageScale="1" pageWidth="850" pageHeight="1100" math="0" shadow="0">
      <root>
        <mxCell id="0" />
        <mxCell id="1" parent="0" />
        <mxCell id="0GrLM-0Wt3R-fld8987S-1" style="edgeStyle=orthogonalEdgeStyle;rounded=0;orthogonalLoop=1;jettySize=auto;html=1;entryX=0.5;entryY=0;entryDx=0;entryDy=0;" parent="1" source="0GrLM-0Wt3R-fld8987S-2" target="0GrLM-0Wt3R-fld8987S-3" edge="1">
          <mxGeometry relative="1" as="geometry" />
        </mxCell>
        <mxCell id="0GrLM-0Wt3R-fld8987S-2" value="" style="ellipse;html=1;shape=startState;fillColor=#000000;strokeColor=#ff0000;" parent="1" vertex="1">
          <mxGeometry x="408.12" y="18" width="30" height="30" as="geometry" />
        </mxCell>
        <mxCell id="YUT999O9p-wqD0FR052m-3" value="" style="edgeStyle=orthogonalEdgeStyle;rounded=0;orthogonalLoop=1;jettySize=auto;html=1;" parent="1" source="0GrLM-0Wt3R-fld8987S-3" target="YUT999O9p-wqD0FR052m-2" edge="1">
          <mxGeometry relative="1" as="geometry" />
        </mxCell>
        <mxCell id="0GrLM-0Wt3R-fld8987S-3" value="انتخاب گزینه درخواست ها" style="rounded=1;whiteSpace=wrap;html=1;fillColor=#fff2cc;strokeColor=#d6b656;" parent="1" vertex="1">
          <mxGeometry x="363.12" y="102" width="120" height="60" as="geometry" />
        </mxCell>
        <mxCell id="YUT999O9p-wqD0FR052m-5" value="" style="edgeStyle=orthogonalEdgeStyle;rounded=0;orthogonalLoop=1;jettySize=auto;html=1;" parent="1" source="YUT999O9p-wqD0FR052m-2" target="YUT999O9p-wqD0FR052m-4" edge="1">
          <mxGeometry relative="1" as="geometry" />
        </mxCell>
        <mxCell id="YUT999O9p-wqD0FR052m-2" value="انتخاب درخواست موردنظر" style="rounded=1;whiteSpace=wrap;html=1;fillColor=#fff2cc;strokeColor=#d6b656;" parent="1" vertex="1">
          <mxGeometry x="363.12" y="242" width="120" height="60" as="geometry" />
        </mxCell>
        <mxCell id="z_w1srjm0N2SaW6AXXTy-2" value="" style="edgeStyle=orthogonalEdgeStyle;rounded=0;orthogonalLoop=1;jettySize=auto;html=1;" parent="1" source="YUT999O9p-wqD0FR052m-4" target="z_w1srjm0N2SaW6AXXTy-1" edge="1">
          <mxGeometry relative="1" as="geometry" />
        </mxCell>
        <mxCell id="YUT999O9p-wqD0FR052m-4" value="مشاهئه پروفایل پزشک" style="rounded=1;whiteSpace=wrap;html=1;fillColor=#fff2cc;strokeColor=#d6b656;" parent="1" vertex="1">
          <mxGeometry x="363.12" y="366" width="120" height="60" as="geometry" />
        </mxCell>
        <mxCell id="z_w1srjm0N2SaW6AXXTy-3" style="edgeStyle=orthogonalEdgeStyle;rounded=0;orthogonalLoop=1;jettySize=auto;html=1;entryX=1;entryY=0.5;entryDx=0;entryDy=0;exitX=1;exitY=0.5;exitDx=0;exitDy=0;" parent="1" source="z_w1srjm0N2SaW6AXXTy-1" target="0GrLM-0Wt3R-fld8987S-3" edge="1">
          <mxGeometry relative="1" as="geometry">
            <Array as="points">
              <mxPoint x="549" y="507" />
              <mxPoint x="549" y="132" />
            </Array>
            <mxPoint x="512" y="507" as="sourcePoint" />
          </mxGeometry>
        </mxCell>
        <mxCell id="z_w1srjm0N2SaW6AXXTy-4" value="رد" style="edgeLabel;html=1;align=center;verticalAlign=middle;resizable=0;points=[];" parent="z_w1srjm0N2SaW6AXXTy-3" vertex="1" connectable="0">
          <mxGeometry x="-0.3386" y="-2" relative="1" as="geometry">
            <mxPoint as="offset" />
          </mxGeometry>
        </mxCell>
        <mxCell id="z_w1srjm0N2SaW6AXXTy-12" value="" style="edgeStyle=orthogonalEdgeStyle;rounded=0;orthogonalLoop=1;jettySize=auto;html=1;" parent="1" source="z_w1srjm0N2SaW6AXXTy-1" target="z_w1srjm0N2SaW6AXXTy-10" edge="1">
          <mxGeometry relative="1" as="geometry" />
        </mxCell>
        <mxCell id="z_w1srjm0N2SaW6AXXTy-13" value="قبول" style="edgeLabel;html=1;align=center;verticalAlign=middle;resizable=0;points=[];" parent="z_w1srjm0N2SaW6AXXTy-12" vertex="1" connectable="0">
          <mxGeometry x="-0.2979" relative="1" as="geometry">
            <mxPoint as="offset" />
          </mxGeometry>
        </mxCell>
        <mxCell id="z_w1srjm0N2SaW6AXXTy-1" value="ارزیابی درخواست" style="rhombus;whiteSpace=wrap;html=1;fillColor=#dae8fc;strokeColor=#6c8ebf;" parent="1" vertex="1">
          <mxGeometry x="338.62" y="467" width="169" height="80" as="geometry" />
        </mxCell>
        <mxCell id="z_w1srjm0N2SaW6AXXTy-10" value="اضافه شدن پزشک وبیمارانش به پروفایل بهیار" style="rounded=1;whiteSpace=wrap;html=1;fillColor=#fff2cc;strokeColor=#d6b656;" parent="1" vertex="1">
          <mxGeometry x="363.12" y="608" width="120" height="60" as="geometry" />
        </mxCell>
        <mxCell id="JArLmHxxQ1WXDEWy4zBN-1" value="&lt;font style=&quot;font-size: 41px;&quot; face=&quot;Tahoma&quot; color=&quot;#ff2e9d&quot;&gt;پنل بهیار&lt;/font&gt;&lt;font style=&quot;font-size: 41px;&quot; face=&quot;_kxpbe5iIvoVPWevJDPW&quot;&gt;&lt;br&gt;&lt;/font&gt;" style="text;html=1;align=center;verticalAlign=middle;resizable=0;points=[];autosize=1;strokeColor=none;fillColor=none;" vertex="1" parent="1">
          <mxGeometry x="645" y="24" width="135" height="61" as="geometry" />
        </mxCell>
      </root>
    </mxGraphModel>
  </diagram>
  <diagram id="e3KOkIOPjiXNjXyj3YwB" name="پاسخ استعلام (داروخانه)">
    <mxGraphModel dx="1434" dy="907" grid="0" gridSize="10" guides="1" tooltips="1" connect="1" arrows="1" fold="1" page="1" pageScale="1" pageWidth="850" pageHeight="1100" math="0" shadow="0">
      <root>
        <mxCell id="0" />
        <mxCell id="1" parent="0" />
        <mxCell id="DsUI9rDGzcrobNVuDyx_-1" style="edgeStyle=orthogonalEdgeStyle;rounded=0;orthogonalLoop=1;jettySize=auto;html=1;entryX=0.5;entryY=0;entryDx=0;entryDy=0;" parent="1" source="DsUI9rDGzcrobNVuDyx_-2" target="DsUI9rDGzcrobNVuDyx_-3" edge="1">
          <mxGeometry relative="1" as="geometry" />
        </mxCell>
        <mxCell id="DsUI9rDGzcrobNVuDyx_-2" value="" style="ellipse;html=1;shape=startState;fillColor=#000000;strokeColor=#ff0000;" parent="1" vertex="1">
          <mxGeometry x="408.12" y="18" width="30" height="30" as="geometry" />
        </mxCell>
        <mxCell id="DsUI9rDGzcrobNVuDyx_-3" value="" style="rounded=1;whiteSpace=wrap;html=1;fillColor=#fff2cc;strokeColor=#d6b656;" parent="1" vertex="1">
          <mxGeometry x="363.12" y="102" width="120" height="60" as="geometry" />
        </mxCell>
        <mxCell id="DsUI9rDGzcrobNVuDyx_-4" value="" style="rhombus;whiteSpace=wrap;html=1;fillColor=#dae8fc;strokeColor=#6c8ebf;" parent="1" vertex="1">
          <mxGeometry x="341" y="244" width="169" height="80" as="geometry" />
        </mxCell>
        <mxCell id="Kk-oaTG6EkIJZp4oO9BD-1" value="&lt;font style=&quot;font-size: 41px;&quot; face=&quot;Tahoma&quot; color=&quot;#ff2e9d&quot;&gt;پنل داروخانه&lt;/font&gt;&lt;font style=&quot;font-size: 41px;&quot; face=&quot;_kxpbe5iIvoVPWevJDPW&quot;&gt;&lt;br&gt;&lt;/font&gt;" style="text;html=1;align=center;verticalAlign=middle;resizable=0;points=[];autosize=1;strokeColor=none;fillColor=none;" vertex="1" parent="1">
          <mxGeometry x="620" y="24" width="186" height="61" as="geometry" />
        </mxCell>
      </root>
    </mxGraphModel>
  </diagram>
</mxfile>
